<svg width="263" height="252" viewBox="0 0 263 252" fill="none" xmlns="http://www.w3.org/2000/svg">
<path d="M22.04 151.699L26.8726 148.631C26.8726 148.631 29.2191 136.409 27.476 125.623C25.029 110.404 14.4811 105.172 10.6485 106.673C6.81596 108.174 5.9109 112.699 12.833 121.465C16.9169 126.647 22.1685 137.598 22.04 151.699Z" fill="#FFB300"/>
<g opacity="0.3">
<path d="M22.04 151.699L26.8726 148.631C26.8726 148.631 29.2191 136.409 27.476 125.623C25.029 110.404 14.4811 105.172 10.6485 106.673C6.81596 108.174 5.9109 112.699 12.833 121.465C16.9169 126.647 22.1685 137.598 22.04 151.699Z" fill="white"/>
</g>
<path d="M23.7998 145.668H23.7495C23.659 145.654 23.5774 145.606 23.5221 145.535C23.4668 145.463 23.4422 145.373 23.4534 145.284C25.4591 131.041 19.6264 115.471 13.0675 109.188C13.0016 109.125 12.964 109.038 12.9629 108.948C12.9619 108.858 12.9975 108.771 13.0619 108.706C13.1264 108.641 13.2144 108.604 13.3066 108.603C13.3988 108.602 13.4876 108.637 13.5536 108.7C20.2298 115.093 26.1742 130.92 24.1406 145.372C24.1298 145.453 24.0893 145.528 24.0267 145.582C23.9641 145.637 23.8835 145.667 23.7998 145.668Z" fill="white"/>
<path d="M9.87192 159.407C9.14564 159.812 7.07851 158.251 6.51983 157.873C5.53861 157.217 4.74595 156.325 4.21806 155.282C3.62901 154.092 3.43369 152.751 3.65938 151.447C3.7756 150.759 3.93986 150.08 4.15102 149.415C4.34656 148.757 4.53651 148.1 4.7097 147.442C4.94469 146.806 5.04358 146.129 5.00022 145.454C4.82703 144.106 3.60351 143.164 2.49732 142.348C1.26823 141.449 -0.0055685 140.26 1.83112e-05 138.639C0.0880885 137.379 0.601093 136.184 1.45818 135.242C2.2515 134.256 3.19009 133.391 3.9052 132.35C4.46818 131.628 4.76196 130.739 4.73764 129.83C4.66067 129.274 4.47068 128.74 4.17896 128.258C3.62027 127.2 2.82695 126.231 2.4247 125.097C2.02244 123.963 2.07831 122.549 2.98338 121.739C3.72084 121.07 4.82703 120.977 5.82707 121.043C6.76707 121.156 7.67073 121.468 8.47522 121.958C11.101 123.388 12.6039 126.439 15.3917 127.54C16.4905 127.879 17.6101 128.15 18.7438 128.351C19.8611 128.641 21.0064 129.205 21.5372 130.219C22.5596 132.224 20.6601 134.695 21.3808 136.82C22.0177 138.705 23.8836 139.422 24.9284 141.121C25.3554 141.87 25.5276 142.734 25.42 143.586C25.3288 145.026 24.969 146.437 24.3585 147.749C23.6692 149.111 22.8949 150.43 22.04 151.699L9.87192 159.407Z" fill="#FFB300"/>
<g opacity="0.65">
<path d="M9.87192 159.407C9.14564 159.812 7.07851 158.251 6.51983 157.873C5.53861 157.217 4.74595 156.325 4.21806 155.282C3.62901 154.092 3.43369 152.751 3.65938 151.447C3.7756 150.759 3.93986 150.08 4.15102 149.415C4.34656 148.757 4.53651 148.1 4.7097 147.442C4.94469 146.806 5.04358 146.129 5.00022 145.454C4.82703 144.106 3.60351 143.164 2.49732 142.348C1.26823 141.449 -0.0055685 140.26 1.83112e-05 138.639C0.0880885 137.379 0.601093 136.184 1.45818 135.242C2.2515 134.256 3.19009 133.391 3.9052 132.35C4.46818 131.628 4.76196 130.739 4.73764 129.83C4.66067 129.274 4.47068 128.74 4.17896 128.258C3.62027 127.2 2.82695 126.231 2.4247 125.097C2.02244 123.963 2.07831 122.549 2.98338 121.739C3.72084 121.07 4.82703 120.977 5.82707 121.043C6.76707 121.156 7.67073 121.468 8.47522 121.958C11.101 123.388 12.6039 126.439 15.3917 127.54C16.4905 127.879 17.6101 128.15 18.7438 128.351C19.8611 128.641 21.0064 129.205 21.5372 130.219C22.5596 132.224 20.6601 134.695 21.3808 136.82C22.0177 138.705 23.8836 139.422 24.9284 141.121C25.3554 141.87 25.5276 142.734 25.42 143.586C25.3288 145.026 24.969 146.437 24.3585 147.749C23.6692 149.111 22.8949 150.43 22.04 151.699L9.87192 159.407Z" fill="white"/>
</g>
<path d="M16.889 155.375C16.846 155.373 16.8037 155.364 16.7645 155.346C16.7254 155.328 16.6902 155.303 16.6611 155.272C16.6319 155.241 16.6094 155.205 16.5949 155.165C16.5803 155.125 16.5739 155.083 16.5762 155.041C17.1349 142.309 10.9894 128.247 6.51992 124.165C6.46555 124.105 6.43596 124.027 6.43694 123.947C6.43791 123.867 6.46937 123.79 6.52519 123.731C6.58101 123.672 6.65717 123.636 6.73883 123.629C6.82049 123.622 6.90179 123.645 6.96687 123.694C11.5034 127.863 17.7494 142.156 17.2019 155.068C17.1979 155.148 17.1636 155.224 17.1058 155.281C17.048 155.337 16.9707 155.371 16.889 155.375Z" fill="white"/>
<path d="M14.7771 139.811H14.6821C11.6125 138.978 8.45995 138.473 5.27951 138.305C5.23646 138.303 5.19413 138.293 5.15498 138.276C5.11584 138.258 5.08067 138.233 5.05154 138.202C5.02241 138.171 4.9999 138.134 4.98532 138.095C4.97075 138.055 4.9644 138.013 4.96665 137.97C4.96731 137.928 4.97678 137.886 4.9945 137.847C5.01222 137.809 5.03781 137.774 5.06971 137.745C5.1016 137.716 5.13914 137.694 5.18002 137.68C5.22089 137.666 5.26425 137.661 5.30745 137.664C8.55136 137.829 11.7675 138.338 14.9 139.181C14.982 139.209 15.0499 139.266 15.0894 139.342C15.129 139.417 15.1372 139.505 15.1123 139.586C15.09 139.655 15.0449 139.715 14.9842 139.755C14.9234 139.796 14.8505 139.816 14.7771 139.811Z" fill="white"/>
<path d="M133.039 252C204.311 252 262.089 219.291 262.089 178.942C262.089 138.594 204.311 105.885 133.039 105.885C61.7666 105.885 3.98906 138.594 3.98906 178.942C3.98906 219.291 61.7666 252 133.039 252Z" fill="white"/>
<path d="M64.4552 147.799C91.7915 132.328 136.106 132.328 163.437 147.799C186.605 160.914 190.125 180.937 174.018 196.161L234.16 229.775C237.825 231.851 237.825 235.215 234.16 237.291L228.752 240.353C225.087 242.43 219.255 242.265 215.701 239.992L163.185 203.978C135.81 219.317 91.7188 219.257 64.4775 203.836C37.1245 188.36 37.1245 163.275 64.4552 147.799Z" fill="white"/>
<path d="M52.6725 157.867V174.538C52.6725 183.588 58.7733 192.616 70.9693 199.546C95.3613 213.356 134.916 213.356 159.308 199.546C171.504 192.638 177.605 183.588 177.605 174.538V157.867C177.605 148.817 171.504 139.789 159.308 132.865C134.916 119.054 95.3613 119.054 70.9693 132.865C58.7733 139.767 52.6725 148.817 52.6725 157.867ZM171.56 157.867C171.56 165.11 166.135 172.166 156.286 177.742C145.391 183.911 130.782 187.307 115.139 187.307C99.4955 187.307 84.886 183.911 73.9917 177.742C64.1422 172.166 58.7174 165.11 58.7174 157.867C58.7174 150.625 64.1422 143.569 73.9917 137.992C84.886 131.824 99.4955 128.427 115.139 128.427C130.782 128.427 145.397 131.824 156.286 137.992C166.141 143.569 171.56 150.642 171.56 157.867Z" fill="#FFB300"/>
<path opacity="0.2" d="M52.6725 157.867V174.538C52.6725 183.588 58.7733 192.616 70.9693 199.546C95.3613 213.356 134.916 213.356 159.308 199.546C171.504 192.638 177.605 183.588 177.605 174.538V157.867C177.605 148.817 171.504 139.789 159.308 132.865C134.916 119.054 95.3613 119.054 70.9693 132.865C58.7733 139.767 52.6725 148.817 52.6725 157.867ZM171.56 157.867C171.56 165.11 166.135 172.166 156.286 177.742C145.391 183.911 130.782 187.307 115.139 187.307C99.4955 187.307 84.886 183.911 73.9917 177.742C64.1422 172.166 58.7174 165.11 58.7174 157.867C58.7174 150.625 64.1422 143.569 73.9917 137.992C84.886 131.824 99.4955 128.427 115.139 128.427C130.782 128.427 145.397 131.824 156.286 137.992C166.141 143.569 171.56 150.642 171.56 157.867Z" fill="white"/>
<path opacity="0.6" d="M177.543 176.093C176.571 181.829 173.996 186.146 163.621 194.084C148.956 205.314 111.82 209.9 90.2662 202.926C69.9358 196.352 63.4495 183.484 63.4495 174.658L63.5054 169.47C60.3656 165.805 58.7119 161.866 58.7119 157.867C58.7119 153.77 60.4494 149.732 63.74 145.991L63.8127 138.683H62.6562C56.0023 144.506 52.6725 151.184 52.6725 157.856V174.527C52.6725 183.577 58.7733 192.605 70.9694 199.535C95.3614 213.345 134.916 213.345 159.308 199.535C170.806 193.038 176.884 184.607 177.543 176.093Z" fill="#FFB300"/>
<path d="M159.313 132.865C134.916 119.054 95.3668 119.054 70.9748 132.865C46.5828 146.675 46.5772 169.065 70.9748 182.876C95.3724 196.686 134.916 196.686 159.313 182.876C183.711 169.065 183.706 146.675 159.313 132.865ZM156.291 177.742C145.397 183.911 130.782 187.307 115.144 187.307C99.5066 187.307 84.8915 183.911 73.9917 177.742C64.1421 172.166 58.7173 165.11 58.7173 157.867C58.7173 150.625 64.1421 143.569 73.9917 137.992C84.886 131.824 99.5011 128.427 115.144 128.427C130.787 128.427 145.397 131.824 156.291 137.992C166.141 143.569 171.565 150.631 171.565 157.867C171.565 165.104 166.141 172.166 156.291 177.742Z" fill="#FFB300"/>
<path opacity="0.5" d="M159.313 132.865C134.916 119.054 95.3668 119.054 70.9748 132.865C46.5828 146.675 46.5772 169.065 70.9748 182.876C95.3724 196.686 134.916 196.686 159.313 182.876C183.711 169.065 183.706 146.675 159.313 132.865ZM156.291 177.742C145.397 183.911 130.782 187.307 115.144 187.307C99.5066 187.307 84.8915 183.911 73.9917 177.742C64.1421 172.166 58.7173 165.11 58.7173 157.867C58.7173 150.625 64.1421 143.569 73.9917 137.992C84.886 131.824 99.5011 128.427 115.144 128.427C130.787 128.427 145.397 131.824 156.291 137.992C166.141 143.569 171.565 150.631 171.565 157.867C171.565 165.104 166.141 172.166 156.291 177.742Z" fill="white"/>
<path d="M171.571 157.868C171.535 160.811 170.692 163.691 169.13 166.205C166.655 162.004 162.291 158.059 156.28 154.668C145.397 148.494 130.776 145.098 115.133 145.098C99.49 145.098 84.8805 148.494 73.9918 154.668C67.986 158.059 63.6283 162.004 61.1421 166.205C59.5924 163.687 58.7554 160.809 58.7175 157.868C58.7175 150.631 64.1423 143.569 73.9974 137.987C84.8861 131.829 99.5012 128.427 115.139 128.427C130.776 128.427 145.402 131.829 156.286 137.987C166.146 143.569 171.571 150.642 171.571 157.868Z" fill="#FFB300"/>
<path opacity="0.3" d="M171.571 157.868C171.535 160.811 170.692 163.691 169.13 166.205C166.655 162.004 162.291 158.059 156.28 154.668C145.397 148.494 130.776 145.098 115.133 145.098C99.49 145.098 84.8805 148.494 73.9918 154.668C67.986 158.059 63.6283 162.004 61.1421 166.205C59.5924 163.687 58.7554 160.809 58.7175 157.868C58.7175 150.631 64.1423 143.569 73.9974 137.987C84.8861 131.829 99.5012 128.427 115.139 128.427C130.776 128.427 145.402 131.829 156.286 137.987C166.146 143.569 171.571 150.642 171.571 157.868Z" fill="white"/>
<path opacity="0.6" d="M73.9974 137.987C64.1423 143.569 58.7175 150.631 58.7175 157.867C58.7571 160.809 59.596 163.687 61.1477 166.205C63.6395 162.003 67.9972 158.059 73.9974 154.668C76.5347 153.245 79.1707 151.998 81.886 150.937C79.506 151.841 72.1985 154.148 74.8634 147.316C78.0311 139.203 93.4898 130.416 104.848 128.959C93.1658 130.093 82.4558 133.204 73.9974 137.987Z" fill="#FFB300"/>
<path opacity="0.4" d="M156.291 145.541C145.397 139.373 130.782 135.976 115.144 135.976C99.5069 135.976 84.8862 139.373 73.9919 145.541C65.8687 150.143 60.7624 155.753 59.2204 161.642C60.7624 167.531 65.8687 173.146 73.9919 177.742C84.8918 183.911 99.5013 187.307 115.144 187.307C130.787 187.307 145.397 183.911 156.291 177.742C164.42 173.141 169.526 167.531 171.063 161.642C169.532 155.753 164.42 150.143 156.291 145.541Z" fill="white"/>
<path d="M69.8185 165.466C73.3102 168.15 77.2713 169.848 81.3105 171.196C85.3608 172.511 89.5095 173.515 93.7188 174.198C102.13 175.537 110.66 176.015 119.172 175.622C123.424 175.436 127.681 175.047 131.91 174.488C136.126 173.933 140.303 173.126 144.419 172.073C148.515 171.068 152.477 169.597 156.224 167.69C157.149 167.207 158.045 166.671 158.906 166.085C159.771 165.506 160.59 164.865 161.358 164.167C162.133 163.466 162.825 162.681 163.42 161.828C164.036 160.952 164.506 159.985 164.811 158.963C164.829 160.083 164.64 161.197 164.252 162.25C163.842 163.309 163.306 164.317 162.655 165.252C162.011 166.194 161.277 167.075 160.465 167.882C159.66 168.692 158.803 169.451 157.9 170.155C154.259 172.876 150.224 175.048 145.928 176.598C141.692 178.163 137.322 179.356 132.871 180.164C128.444 180.986 123.964 181.507 119.463 181.725C110.429 182.188 101.378 181.243 92.6462 178.926C88.2782 177.752 84.0594 176.098 80.0703 173.995C78.0837 172.927 76.1957 171.692 74.4276 170.303C73.9862 169.958 73.5728 169.58 73.1482 169.207C72.7236 168.835 72.3213 168.457 71.9358 168.057C71.1577 167.253 70.4494 166.386 69.8185 165.466Z" fill="white"/>
<path d="M157.453 193.487C157.528 191.997 157.961 190.546 158.716 189.251C159.472 187.957 160.528 186.855 161.8 186.037C162.995 185.352 164.085 185.281 164.878 185.719L178.8 193.525C179.588 193.969 180.08 194.928 180.085 196.264C180.009 197.754 179.576 199.205 178.82 200.499C178.065 201.794 177.009 202.895 175.739 203.715C174.532 204.405 173.437 204.476 172.644 204.027L158.727 196.226C157.956 195.821 157.459 194.862 157.453 193.487Z" fill="#37474F"/>
<path d="M158.755 196.264C157.956 195.821 157.459 194.862 157.453 193.487C157.473 192.378 157.726 191.285 158.196 190.277L178.203 201.518C177.552 202.416 176.723 203.176 175.767 203.753C174.56 204.443 173.465 204.515 172.672 204.065L158.755 196.264Z" fill="#263238"/>
<path d="M226.205 215.728L181.901 193.591L181.845 193.558C180.817 193.01 179.421 193.109 177.884 193.985C174.745 195.782 172.214 200.121 172.23 203.682C172.23 205.468 172.884 206.717 173.906 207.297L215.545 233.593C216.743 234.337 218.082 234.836 219.481 235.061C220.88 235.287 222.311 235.233 223.688 234.905C225.066 234.576 226.362 233.979 227.499 233.148C228.636 232.318 229.591 231.271 230.307 230.071C231.023 228.871 231.485 227.542 231.665 226.163C231.846 224.784 231.741 223.383 231.358 222.045C230.975 220.706 230.32 219.457 229.434 218.372C228.548 217.287 227.447 216.388 226.199 215.728H226.205Z" fill="#455A64"/>
<path d="M173.912 207.309L215.551 233.604C217.099 234.557 218.872 235.099 220.698 235.177C222.524 235.255 224.34 234.867 225.967 234.05C227.593 233.233 228.976 232.016 229.978 230.517C230.981 229.019 231.569 227.29 231.685 225.502C230.886 228.904 225.154 231.796 218.048 227.901C210.941 224.006 184.616 207.687 172.655 200.932C172.374 201.819 172.227 202.742 172.219 203.671C172.225 205.479 172.884 206.728 173.912 207.309Z" fill="#37474F"/>
<path d="M173.912 207.309C172.873 206.728 172.236 205.479 172.236 203.693C172.236 200.132 174.75 195.793 177.89 193.996C179.426 193.12 180.823 193.027 181.851 193.569L185.762 195.519C184.706 194.972 183.281 195.059 181.7 195.958C178.482 197.798 175.884 202.252 175.901 205.906C175.901 207.736 176.543 209.045 177.605 209.637" fill="#FFB300"/>
<path opacity="0.2" d="M177.599 209.637C176.538 209.045 175.923 207.736 175.895 205.906C175.901 204.938 176.054 203.976 176.348 203.052C175.013 202.274 173.767 201.562 172.655 200.932C172.514 201.39 172.404 201.857 172.325 202.329C172.292 202.559 172.264 202.789 172.242 203.019C172.242 203.249 172.214 203.474 172.242 203.693C172.242 205.479 172.895 206.728 173.918 207.309L177.599 209.637Z" fill="#0A0A0A"/>
<path d="M67.9692 232.684L34.4483 216.244L21.0958 222.04L67.9692 232.684Z" fill="#FFB300"/>
<g opacity="0.15">
<path d="M67.9692 232.684L34.4483 216.244L21.0958 222.04L67.9692 232.684Z" fill="white"/>
</g>
<path d="M67.9692 232.684L38.4429 213.329L43.728 205.879L67.9692 232.684Z" fill="#FFB300"/>
<g opacity="0.15">
<path d="M67.9692 232.684L38.4429 213.329L43.728 205.879L67.9692 232.684Z" fill="white"/>
</g>
<path d="M38.4429 213.329L38.9959 218.473L67.9692 232.684L38.4429 213.329Z" fill="#FFB300"/>
<g opacity="0.2">
<path d="M38.4429 213.329L38.9959 218.473L67.9692 232.684L38.4429 213.329Z" fill="#0A0A0A"/>
</g>
<path d="M33.6604 212.343C33.7416 212.341 33.8192 212.31 33.8783 212.255C33.9467 212.189 33.9879 212.101 33.9941 212.007C34.0003 211.913 33.971 211.82 33.9118 211.746L33.2694 210.902C33.2433 210.867 33.2098 210.837 33.1711 210.815C33.1324 210.793 33.0893 210.78 33.0449 210.776C33.0004 210.772 32.9556 210.777 32.9133 210.791C32.8711 210.805 32.8325 210.828 32.8001 210.858C32.7319 210.924 32.6904 211.012 32.6832 211.106C32.676 211.2 32.7037 211.293 32.761 211.368C32.9733 211.647 33.1911 211.916 33.409 212.195C33.4364 212.237 33.4734 212.272 33.517 212.298C33.5606 212.324 33.6097 212.339 33.6604 212.343Z" fill="#455A64"/>
<path d="M30.7163 208.607C30.3178 208.037 29.9323 207.462 29.5598 206.881C29.5094 206.801 29.4902 206.706 29.5056 206.614C29.521 206.521 29.57 206.437 29.6436 206.377C29.6784 206.35 29.7187 206.331 29.7618 206.321C29.8049 206.31 29.8497 206.309 29.8933 206.318C29.9368 206.326 29.978 206.343 30.0139 206.369C30.0499 206.394 30.0799 206.427 30.1018 206.465C30.4761 207.04 30.856 207.61 31.2191 208.174C31.2738 208.251 31.2973 208.346 31.2849 208.439C31.2725 208.532 31.2251 208.617 31.1521 208.678C31.0979 208.724 31.0284 208.75 30.9565 208.749C30.9083 208.744 30.8617 208.729 30.8202 208.704C30.7787 208.68 30.7432 208.646 30.7163 208.607ZM27.7609 203.901C27.4201 203.293 27.0849 202.674 26.7664 202.055C26.7227 201.972 26.7116 201.875 26.7352 201.784C26.7589 201.694 26.8157 201.614 26.8949 201.562C26.9334 201.539 26.9765 201.524 27.0213 201.518C27.0661 201.513 27.1116 201.517 27.1546 201.531C27.1976 201.544 27.2371 201.567 27.2704 201.597C27.3037 201.627 27.33 201.663 27.3475 201.704C27.6603 202.312 27.9899 202.92 28.3251 203.523C28.3727 203.604 28.3882 203.7 28.3687 203.792C28.3491 203.884 28.2958 203.966 28.219 204.022C28.1668 204.053 28.107 204.07 28.0458 204.071C27.9872 204.07 27.9299 204.054 27.8798 204.024C27.8297 203.994 27.7887 203.952 27.7609 203.901ZM25.2692 198.883C24.9898 198.231 24.7105 197.574 24.4758 196.922C24.4415 196.835 24.4408 196.74 24.4738 196.653C24.5067 196.566 24.5711 196.494 24.6546 196.451C24.6962 196.433 24.7411 196.425 24.7862 196.425C24.8314 196.426 24.876 196.436 24.917 196.455C24.9581 196.473 24.9947 196.5 25.0246 196.533C25.0544 196.567 25.0768 196.606 25.0904 196.648C25.3306 197.289 25.5932 197.935 25.8725 198.576C25.9101 198.662 25.9143 198.759 25.8845 198.847C25.8547 198.936 25.7928 199.011 25.7105 199.058C25.6671 199.08 25.6193 199.091 25.5708 199.091C25.5053 199.089 25.4418 199.068 25.3882 199.031C25.3345 198.994 25.2932 198.943 25.2692 198.883ZM23.3361 193.58C23.135 192.895 22.945 192.2 22.7774 191.526C22.7508 191.436 22.7603 191.34 22.804 191.258C22.8477 191.175 22.9222 191.112 23.0121 191.082C23.0558 191.071 23.1014 191.068 23.1461 191.075C23.1908 191.082 23.2336 191.097 23.2719 191.121C23.3101 191.145 23.343 191.176 23.3685 191.212C23.3939 191.249 23.4115 191.29 23.4199 191.334C23.5819 192.002 23.7663 192.682 23.9786 193.355C24.007 193.444 24.0011 193.539 23.9618 193.623C23.9226 193.707 23.8529 193.774 23.7663 193.81H23.6657C23.5929 193.811 23.5217 193.79 23.4623 193.748C23.403 193.707 23.3588 193.648 23.3361 193.58ZM22.04 188.042C21.9282 187.346 21.8277 186.634 21.7439 185.927C21.7275 185.836 21.7482 185.743 21.8016 185.667C21.8549 185.591 21.9365 185.539 22.0288 185.522C22.1204 185.515 22.2108 185.545 22.2807 185.603C22.3507 185.661 22.3946 185.744 22.4031 185.834C22.4813 186.53 22.5819 187.231 22.6936 187.916C22.7124 188.005 22.6957 188.098 22.6469 188.175C22.598 188.252 22.5208 188.309 22.4311 188.332H22.3696C22.289 188.328 22.2124 188.297 22.1523 188.244C22.0923 188.191 22.0527 188.12 22.04 188.042ZM21.4813 182.366C21.4813 181.818 21.4478 181.27 21.4478 180.684V180.224C21.4455 180.18 21.4523 180.135 21.4676 180.093C21.483 180.051 21.5066 180.012 21.5373 179.979C21.5679 179.946 21.6048 179.919 21.6461 179.9C21.6873 179.881 21.7319 179.87 21.7774 179.868C21.8698 179.875 21.9557 179.918 22.0164 179.986C22.077 180.055 22.1076 180.144 22.1014 180.235V180.684C22.1014 181.232 22.1014 181.78 22.1014 182.328C22.1093 182.419 22.0803 182.51 22.0208 182.58C21.9613 182.651 21.8759 182.696 21.783 182.706C21.6991 182.695 21.622 182.655 21.5665 182.592C21.5109 182.529 21.4806 182.449 21.4813 182.366ZM21.9227 177.058C21.8312 177.042 21.7495 176.992 21.6945 176.918C21.6394 176.845 21.6151 176.754 21.6266 176.663C21.688 175.957 21.7662 175.239 21.8556 174.532C21.859 174.487 21.8717 174.444 21.8929 174.404C21.9142 174.364 21.9435 174.329 21.9791 174.301C22.0147 174.273 22.0558 174.252 22.0999 174.24C22.144 174.228 22.1902 174.225 22.2355 174.231C22.3268 174.249 22.407 174.302 22.4592 174.378C22.5114 174.454 22.5314 174.546 22.5149 174.636C22.4255 175.332 22.3473 176.039 22.2858 176.729C22.2818 176.814 22.246 176.895 22.1852 176.955C22.1243 177.016 22.0428 177.052 21.9562 177.058H21.9227ZM22.7048 171.459C22.6154 171.431 22.5401 171.371 22.4944 171.29C22.4488 171.21 22.4361 171.115 22.459 171.026C22.6042 170.33 22.7718 169.635 22.9562 168.95C22.9646 168.906 22.9821 168.865 23.0076 168.829C23.0332 168.792 23.0662 168.762 23.1046 168.738C23.143 168.715 23.1859 168.7 23.2306 168.694C23.2752 168.688 23.3207 168.691 23.3641 168.703C23.4525 168.737 23.525 168.801 23.5674 168.884C23.6098 168.968 23.6189 169.063 23.5931 169.153C23.4143 169.821 23.2467 170.511 23.1015 171.191C23.0898 171.266 23.0517 171.335 22.9935 171.386C22.9354 171.437 22.861 171.467 22.783 171.47L22.7048 171.459ZM24.2132 166.041C24.1283 166.001 24.062 165.93 24.0278 165.844C23.9936 165.757 23.994 165.661 24.0289 165.575C24.2691 164.918 24.5373 164.255 24.8166 163.609C24.8324 163.568 24.8567 163.53 24.8879 163.499C24.9192 163.467 24.9567 163.443 24.9982 163.426C25.0396 163.41 25.0841 163.402 25.1288 163.403C25.1735 163.404 25.2175 163.415 25.258 163.433C25.3394 163.481 25.4005 163.556 25.4302 163.645C25.46 163.733 25.4563 163.829 25.42 163.915C25.1407 164.551 24.8613 165.197 24.6434 165.844C24.6225 165.908 24.5816 165.964 24.5265 166.004C24.4714 166.045 24.4049 166.067 24.3362 166.068C24.2935 166.07 24.2511 166.06 24.2132 166.041ZM26.5094 160.952C26.4307 160.897 26.3752 160.816 26.3536 160.724C26.3319 160.632 26.3457 160.536 26.3921 160.453C26.7329 159.845 27.0905 159.237 27.4536 158.651C27.4751 158.612 27.5048 158.578 27.5409 158.552C27.5769 158.525 27.6183 158.507 27.6624 158.497C27.7064 158.488 27.752 158.488 27.796 158.497C27.84 158.507 27.8814 158.526 27.9173 158.552C27.9909 158.612 28.0402 158.696 28.0566 158.788C28.073 158.88 28.0553 158.976 28.0067 159.056C27.6436 159.631 27.2916 160.229 26.962 160.826C26.9354 160.878 26.8948 160.922 26.8445 160.952C26.7943 160.983 26.7363 161 26.677 161.001C26.6175 161.001 26.5592 160.984 26.5094 160.952ZM29.476 156.301C29.4083 156.236 29.367 156.149 29.3598 156.056C29.3526 155.963 29.38 155.871 29.4369 155.797C29.8559 155.249 30.2973 154.701 30.7386 154.186C30.7675 154.153 30.8034 154.126 30.844 154.107C30.8845 154.089 30.9286 154.079 30.9733 154.079C31.018 154.079 31.0621 154.089 31.1026 154.107C31.1432 154.126 31.1791 154.153 31.2079 154.186C31.2716 154.256 31.3067 154.347 31.3067 154.441C31.3067 154.535 31.2716 154.625 31.2079 154.696C30.7722 155.205 30.342 155.731 29.9286 156.273C29.8994 156.314 29.8609 156.347 29.8162 156.369C29.7715 156.392 29.722 156.404 29.6716 156.405C29.6289 156.404 29.587 156.394 29.5484 156.376C29.5099 156.358 29.4757 156.333 29.4481 156.301H29.476ZM33.0683 152.203C33.0047 152.133 32.9696 152.042 32.9696 151.948C32.9696 151.854 33.0047 151.764 33.0683 151.694C33.56 151.217 34.0684 150.751 34.5768 150.313C34.6103 150.284 34.6499 150.262 34.6928 150.249C34.7357 150.236 34.781 150.232 34.8255 150.238C34.87 150.244 34.9128 150.259 34.9508 150.282C34.9889 150.305 35.0214 150.336 35.0461 150.373C35.1002 150.451 35.1243 150.545 35.114 150.638C35.1038 150.731 35.0599 150.818 34.9902 150.883C34.4874 151.31 33.9902 151.765 33.5041 152.23C33.4468 152.288 33.3685 152.322 33.2862 152.323C33.2387 152.323 33.1919 152.311 33.1494 152.291C33.1068 152.27 33.0696 152.24 33.0404 152.203H33.0683ZM37.1802 148.735C37.1344 148.654 37.1193 148.559 37.1377 148.468C37.1561 148.377 37.2068 148.295 37.2808 148.237C37.8395 147.842 38.3982 147.475 38.9569 147.141C38.9951 147.119 39.0377 147.105 39.0819 147.1C39.1262 147.095 39.1709 147.1 39.2132 147.113C39.2555 147.127 39.2944 147.149 39.3272 147.178C39.3601 147.208 39.3862 147.243 39.4038 147.284C39.4472 147.366 39.4581 147.461 39.4344 147.551C39.4107 147.641 39.3541 147.719 39.2753 147.771C38.7166 148.1 38.1579 148.461 37.5993 148.867C37.5469 148.903 37.4844 148.922 37.4205 148.922C37.3634 148.915 37.3089 148.895 37.262 148.862C37.2151 148.83 37.1774 148.786 37.1523 148.735H37.1802Z" fill="#455A64"/>
<path d="M42.0965 146.369H42.197C42.4921 146.259 42.797 146.177 43.1077 146.122C43.1994 146.102 43.2797 146.049 43.3318 145.972C43.3839 145.895 43.4037 145.802 43.387 145.711C43.3835 145.667 43.371 145.624 43.3502 145.584C43.3294 145.544 43.3007 145.509 43.2658 145.481C43.2309 145.452 43.1905 145.431 43.1471 145.417C43.1036 145.404 43.0579 145.4 43.0127 145.405C42.6666 145.468 42.3265 145.56 41.9959 145.678C41.9074 145.713 41.8357 145.779 41.7952 145.864C41.7547 145.948 41.7486 146.044 41.778 146.133C41.7991 146.2 41.8413 146.259 41.8984 146.301C41.9556 146.344 42.0249 146.367 42.0965 146.369Z" fill="#455A64"/>
<path d="M198.974 20.3421L164.615 10.0156L191.086 27.8473L198.974 20.3421Z" fill="#FFB300"/>
<path opacity="0.15" d="M198.974 20.3421L164.615 10.0156L191.086 27.8473L198.974 20.3421Z" fill="white"/>
<path d="M164.615 10.0156L201.594 15.8499L209.483 8.34473L164.615 10.0156Z" fill="#FFB300"/>
<path opacity="0.15" d="M164.615 10.0156L201.594 15.8499L209.483 8.34473L164.615 10.0156Z" fill="white"/>
<path d="M201.594 15.8499L201.628 24.8123L198.974 20.3421L164.615 10.0156L201.594 15.8499Z" fill="#FFB300"/>
<path opacity="0.2" d="M201.594 15.8499L201.628 24.8123L198.974 20.3421L164.615 10.0156L201.594 15.8499Z" fill="#0A0A0A"/>
<path d="M201.628 24.8123L196.343 22.8456L198.974 20.342L201.628 24.8123Z" fill="#FFB300"/>
<path opacity="0.2" d="M198.974 20.342L196.343 22.8456L197.186 23.1579L198.974 20.342Z" fill="#0A0A0A"/>
<path d="M208.561 18.7644C208.529 18.7878 208.502 18.8174 208.482 18.8513C208.462 18.8852 208.449 18.9227 208.444 18.9616C208.432 19.0552 208.455 19.1496 208.508 19.228C208.562 19.3064 208.642 19.3635 208.734 19.389L209.751 19.6574C209.794 19.6705 209.839 19.6744 209.883 19.6687C209.928 19.663 209.97 19.6479 210.008 19.6245C210.046 19.601 210.078 19.5697 210.102 19.5328C210.126 19.4959 210.142 19.4543 210.148 19.4109C210.161 19.3186 210.14 19.2248 210.089 19.1464C210.038 19.068 209.959 19.0102 209.868 18.9836L208.84 18.7151C208.793 18.7016 208.743 18.699 208.695 18.7076C208.646 18.7161 208.601 18.7356 208.561 18.7644Z" fill="#455A64"/>
<path d="M213.215 19.986C213.88 20.2051 214.545 20.4352 215.198 20.6708C215.288 20.704 215.363 20.7675 215.409 20.8499C215.455 20.9322 215.469 21.028 215.45 21.12C215.438 21.1624 215.417 21.2018 215.389 21.2357C215.36 21.2695 215.325 21.297 215.285 21.3162C215.244 21.3354 215.2 21.3459 215.156 21.347C215.111 21.3482 215.066 21.3398 215.025 21.3227C214.377 21.0871 213.718 20.8625 213.059 20.6434C212.969 20.6133 212.893 20.5523 212.846 20.4716C212.799 20.391 212.783 20.2963 212.802 20.2051C212.815 20.1348 212.855 20.0721 212.913 20.0298C212.956 19.9983 213.006 19.9778 213.059 19.9702C213.111 19.9625 213.165 19.9679 213.215 19.986ZM218.472 21.9691C219.126 22.254 219.768 22.5169 220.405 22.8511C220.492 22.8906 220.56 22.9601 220.597 23.0461C220.634 23.1321 220.637 23.2285 220.606 23.3167C220.59 23.3576 220.564 23.3946 220.532 23.4252C220.5 23.4558 220.461 23.4794 220.419 23.4944C220.377 23.5094 220.332 23.5155 220.287 23.5122C220.243 23.509 220.199 23.4965 220.159 23.4756C219.534 23.1743 218.897 22.884 218.254 22.61C218.168 22.5716 218.098 22.504 218.058 22.4196C218.018 22.3351 218.011 22.2395 218.036 22.1499C218.055 22.0907 218.092 22.0389 218.143 22.002C218.189 21.9679 218.245 21.9469 218.303 21.9411C218.361 21.9353 218.419 21.945 218.472 21.9691ZM223.556 24.4836C224.182 24.8342 224.797 25.2012 225.4 25.5792C225.48 25.6281 225.54 25.7039 225.567 25.7926C225.595 25.8812 225.589 25.9767 225.551 26.0613C225.529 26.1001 225.498 26.1339 225.462 26.1605C225.426 26.1871 225.384 26.2059 225.34 26.2157C225.295 26.2255 225.25 26.2261 225.205 26.2174C225.161 26.2088 225.119 26.191 225.081 26.1654C224.489 25.7984 223.88 25.4423 223.266 25.0698C223.183 25.0245 223.12 24.9508 223.089 24.8629C223.058 24.7749 223.061 24.6789 223.098 24.5932C223.117 24.5475 223.148 24.5077 223.188 24.4781C223.243 24.4436 223.307 24.4257 223.373 24.4267C223.438 24.4276 223.502 24.4474 223.556 24.4836ZM228.372 27.5569C228.959 27.9787 229.534 28.417 230.087 28.8552C230.162 28.9118 230.212 28.9941 230.228 29.0856C230.244 29.1771 230.223 29.2709 230.171 29.3483C230.143 29.3837 230.109 29.4131 230.069 29.4345C230.029 29.4559 229.985 29.4689 229.94 29.4725C229.894 29.4761 229.849 29.4703 229.806 29.4555C229.763 29.4407 229.724 29.4173 229.691 29.3866C229.132 28.9538 228.573 28.5265 228.015 28.1102C227.936 28.0568 227.881 27.9764 227.86 27.8851C227.84 27.7937 227.855 27.6981 227.903 27.6171C227.919 27.5884 227.942 27.564 227.97 27.5459C228.03 27.5065 228.101 27.4863 228.173 27.4883C228.245 27.4902 228.315 27.5142 228.372 27.5569ZM232.814 31.2163C233.339 31.7039 233.858 32.2079 234.361 32.7229C234.426 32.7892 234.462 32.8775 234.462 32.9694C234.462 33.0613 234.426 33.1496 234.361 33.2159C234.329 33.2477 234.291 33.2729 234.248 33.2902C234.206 33.3074 234.161 33.3163 234.115 33.3163C234.07 33.3163 234.024 33.3074 233.982 33.2902C233.94 33.2729 233.902 33.2477 233.87 33.2159C233.378 32.7119 232.864 32.2134 232.35 31.7368C232.28 31.6756 232.236 31.5905 232.228 31.4989C232.22 31.4073 232.247 31.3161 232.305 31.2437L232.35 31.1999C232.416 31.1459 232.499 31.1177 232.585 31.1207C232.671 31.1238 232.752 31.1578 232.814 31.2163ZM236.775 35.3908C237.138 35.8235 237.49 36.2618 237.842 36.711L238.121 37.0781C238.18 37.1481 238.208 37.2379 238.199 37.3281C238.191 37.4183 238.147 37.5016 238.076 37.5601C238.038 37.5858 237.996 37.6038 237.95 37.613C237.905 37.6222 237.859 37.6225 237.813 37.6138C237.768 37.6052 237.725 37.5877 237.687 37.5625C237.648 37.5373 237.616 37.5048 237.59 37.467L237.311 37.1054C236.97 36.6672 236.624 36.2344 236.266 35.8071C236.202 35.7417 236.166 35.6543 236.166 35.5633C236.166 35.4723 236.202 35.3849 236.266 35.3195C236.302 35.2881 236.344 35.2643 236.39 35.2497C236.435 35.235 236.484 35.2298 236.532 35.2345C236.579 35.2391 236.626 35.2535 236.668 35.2766C236.709 35.2997 236.746 35.3311 236.775 35.3688V35.3908ZM239.708 39.8829C239.79 39.8405 239.885 39.8305 239.975 39.855C240.064 39.8794 240.14 39.9364 240.188 40.0144C240.574 40.617 240.954 41.2306 241.306 41.8496C241.33 41.8872 241.346 41.9292 241.354 41.9732C241.362 42.0171 241.36 42.0621 241.35 42.1055C241.339 42.1489 241.32 42.1898 241.293 42.2258C241.267 42.2618 241.233 42.2922 241.194 42.3152C241.109 42.3524 241.013 42.3567 240.925 42.3272C240.836 42.2978 240.763 42.2367 240.719 42.1564C240.361 41.5483 239.987 40.9402 239.602 40.354C239.552 40.2844 239.531 40.1991 239.542 40.115C239.554 40.0308 239.597 39.9539 239.663 39.8993L239.708 39.8829ZM242.54 44.8133C242.629 44.7818 242.727 44.7847 242.815 44.8213C242.902 44.8579 242.971 44.9255 243.01 45.0105C243.317 45.6515 243.619 46.3034 243.892 46.9553C243.912 46.9954 243.923 47.039 243.924 47.0834C243.926 47.1277 243.919 47.172 243.902 47.2135C243.886 47.2549 243.862 47.2928 243.83 47.3246C243.799 47.3565 243.761 47.3819 243.719 47.399C243.628 47.4244 243.53 47.4154 243.446 47.3738C243.361 47.3323 243.295 47.2612 243.261 47.1744C242.993 46.5335 242.702 45.8925 242.395 45.268C242.357 45.2001 242.344 45.121 242.359 45.0448C242.375 44.9686 242.417 44.9002 242.479 44.8517C242.493 44.822 242.514 44.7958 242.54 44.775V44.8133ZM244.691 50.0176C244.784 50.0004 244.88 50.0178 244.961 50.0664C245.042 50.115 245.101 50.1914 245.127 50.2806C245.339 50.9489 245.54 51.6337 245.714 52.313C245.727 52.3551 245.731 52.3996 245.726 52.4434C245.72 52.4872 245.705 52.5293 245.682 52.5671C245.659 52.6049 245.628 52.6374 245.591 52.6626C245.554 52.6877 245.512 52.7049 245.468 52.7129C245.374 52.7248 245.28 52.7023 245.202 52.6497C245.125 52.597 245.07 52.518 245.049 52.4281C244.876 51.7597 244.68 51.0859 244.49 50.434C244.466 50.3709 244.463 50.3022 244.481 50.2375C244.499 50.1727 244.538 50.115 244.591 50.0724C244.616 50.0337 244.65 50.0018 244.691 49.9793V50.0176ZM246.032 55.4137C246.128 55.4114 246.221 55.4436 246.294 55.5042C246.367 55.5647 246.415 55.6495 246.429 55.7424C246.54 56.4272 246.63 57.1229 246.702 57.8132C246.708 57.8561 246.704 57.8997 246.691 57.9411C246.678 57.9824 246.657 58.0207 246.628 58.0533C246.599 58.0859 246.563 58.1121 246.523 58.1302C246.483 58.1483 246.439 58.1579 246.395 58.1583C246.299 58.1573 246.208 58.1214 246.137 58.0576C246.067 57.9938 246.024 57.9067 246.015 57.8132C245.943 57.1393 245.859 56.46 245.747 55.7862C245.737 55.7295 245.743 55.6711 245.763 55.6172C245.784 55.5632 245.819 55.5157 245.864 55.4794C245.907 55.4278 245.966 55.3913 246.032 55.3753V55.4137Z" fill="#455A64"/>
<path d="M252.15 142.879C250.653 142.003 248.541 142.123 246.194 143.427L203.645 167.531C199.103 170.1 195.416 176.214 195.416 181.183C195.416 183.61 196.298 185.308 197.729 186.113L202.293 188.694C203.785 189.526 205.869 189.395 208.182 188.086L250.736 163.981C255.278 161.412 258.96 155.298 258.96 150.33C258.96 147.919 258.089 146.215 256.67 145.399C255.893 144.983 252.898 143.317 252.15 142.879Z" fill="white"/>
<path d="M204.405 188.989C201.835 188.989 200.237 186.995 200.237 183.791C200.237 178.92 203.863 172.9 208.321 170.38L250.876 146.276C251.972 145.609 253.225 145.232 254.513 145.18C257.083 145.18 258.681 147.174 258.681 150.379C258.681 155.254 255.055 161.27 250.597 163.795L208.042 187.899C206.947 188.566 205.693 188.942 204.405 188.989Z" fill="white"/>
<path d="M254.513 145.432C256.91 145.432 258.424 147.322 258.424 150.362C258.424 155.15 254.86 161.061 250.48 163.51L207.925 187.614C206.872 188.259 205.667 188.625 204.427 188.677C203.897 188.695 203.369 188.593 202.885 188.379C202.4 188.165 201.973 187.846 201.634 187.445C200.84 186.376 200.446 185.072 200.517 183.752C200.517 178.97 204.081 173.059 208.461 170.604L251.016 146.5C252.069 145.856 253.273 145.49 254.513 145.437M254.513 144.89C253.174 144.939 251.872 145.332 250.737 146.029L208.182 170.133C203.64 172.708 199.958 178.816 199.958 183.785C199.958 187.264 201.762 189.263 204.427 189.263C205.765 189.213 207.067 188.822 208.204 188.129L250.759 164.025C255.301 161.456 258.983 155.342 258.983 150.373C258.983 146.895 257.178 144.895 254.513 144.895V144.89Z" fill="white"/>
<path d="M214.853 175.491C215.026 175.173 214.998 174.845 214.853 174.757L213.428 173.952C213.398 173.936 213.364 173.928 213.33 173.928C213.296 173.928 213.263 173.936 213.232 173.952L211.925 174.445L211.495 173.546C211.473 173.502 211.438 173.465 211.394 173.442L209.97 172.631C209.791 172.533 209.495 172.757 209.377 173.13L208.489 175.984C208.441 176.156 208.339 176.309 208.199 176.422L206.215 177.929C205.897 178.164 205.774 178.745 206.003 178.904L207.439 179.923C207.488 179.973 207.524 180.034 207.544 180.101C207.563 180.168 207.566 180.238 207.551 180.306L207.21 183.084C207.182 183.287 207.243 183.423 207.338 183.473L208.763 184.284C208.875 184.344 209.042 184.284 209.193 184.103L210.97 181.879C211.007 181.818 211.059 181.767 211.122 181.732C211.184 181.696 211.255 181.677 211.327 181.676L213.109 181.868C213.389 181.906 213.718 181.402 213.668 181.024L213.327 178.63C213.312 178.453 213.351 178.276 213.439 178.121L214.853 175.491Z" fill="#FFB300"/>
<path opacity="0.15" d="M214.836 174.746C214.805 174.732 214.772 174.725 214.738 174.725C214.704 174.725 214.671 174.732 214.64 174.746L212.651 175.491C212.625 175.504 212.597 175.511 212.568 175.512C212.54 175.513 212.511 175.508 212.484 175.498C212.457 175.488 212.433 175.472 212.413 175.452C212.392 175.432 212.377 175.408 212.366 175.381L211.908 174.428L213.215 173.941C213.246 173.926 213.279 173.918 213.313 173.918C213.347 173.918 213.381 173.926 213.411 173.941L214.836 174.746Z" fill="white"/>
<path opacity="0.15" d="M209.897 176.784C209.847 176.955 209.746 177.108 209.606 177.222L207.623 178.723C207.532 178.793 207.459 178.883 207.411 178.986L205.986 178.175C206.037 178.074 206.11 177.984 206.198 177.912L208.182 176.411C208.321 176.299 208.422 176.148 208.472 175.979L209.897 176.784Z" fill="white"/>
<path opacity="0.1" d="M211.389 173.437C211.21 173.322 210.908 173.546 210.785 173.93L209.897 176.784L208.472 175.973L209.361 173.119C209.478 172.746 209.774 172.522 209.953 172.62C209.992 172.62 211.199 173.333 211.383 173.431L211.389 173.437Z" fill="#0A0A0A"/>
<path opacity="0.25" d="M208.847 180.723L207.433 179.923L205.997 178.904C205.83 178.783 205.852 178.455 205.997 178.186L207.422 178.997C207.277 179.26 207.254 179.594 207.422 179.715L208.847 180.723Z" fill="#0A0A0A"/>
<path opacity="0.15" d="M208.64 183.884C208.64 184.086 208.673 184.223 208.78 184.278L207.349 183.467C207.293 183.421 207.252 183.359 207.23 183.291C207.208 183.222 207.207 183.148 207.226 183.078L207.567 180.301C207.581 180.236 207.58 180.168 207.562 180.103C207.545 180.038 207.512 179.978 207.467 179.928L208.88 180.728C208.926 180.777 208.959 180.836 208.976 180.9C208.994 180.964 208.995 181.031 208.981 181.095L208.64 183.884Z" fill="#0A0A0A"/>
<path d="M211.478 173.535L212.366 175.387C212.377 175.413 212.392 175.437 212.413 175.457C212.433 175.478 212.457 175.493 212.484 175.504C212.511 175.514 212.54 175.519 212.568 175.517C212.597 175.516 212.625 175.509 212.651 175.497L214.64 174.751C214.953 174.631 215.081 175.069 214.852 175.491L213.417 178.132C213.328 178.287 213.289 178.464 213.305 178.641L213.646 181.035C213.696 181.413 213.366 181.917 213.087 181.879L211.31 181.665C211.238 181.666 211.167 181.685 211.105 181.721C211.042 181.756 210.99 181.807 210.953 181.868L209.199 184.092C208.914 184.448 208.584 184.322 208.64 183.878L208.981 181.101C208.997 181.033 208.995 180.962 208.975 180.895C208.956 180.828 208.919 180.767 208.869 180.717L207.433 179.704C207.204 179.539 207.333 178.964 207.645 178.723L209.629 177.222C209.769 177.109 209.871 176.956 209.919 176.784L210.808 173.93C210.925 173.475 211.333 173.245 211.478 173.535Z" fill="#FFB300"/>
<path opacity="0.5" d="M211.478 173.535L212.366 175.387C212.377 175.413 212.392 175.437 212.413 175.457C212.433 175.478 212.457 175.493 212.484 175.504C212.511 175.514 212.54 175.519 212.568 175.517C212.597 175.516 212.625 175.509 212.651 175.497L214.64 174.751C214.953 174.631 215.081 175.069 214.852 175.491L213.417 178.132C213.328 178.287 213.289 178.464 213.305 178.641L213.646 181.035C213.696 181.413 213.366 181.917 213.087 181.879L211.31 181.665C211.238 181.666 211.167 181.685 211.105 181.721C211.042 181.756 210.99 181.807 210.953 181.868L209.199 184.092C208.914 184.448 208.584 184.322 208.64 183.878L208.981 181.101C208.997 181.033 208.995 180.962 208.975 180.895C208.956 180.828 208.919 180.767 208.869 180.717L207.433 179.704C207.204 179.539 207.333 178.964 207.645 178.723L209.629 177.222C209.769 177.109 209.871 176.956 209.919 176.784L210.808 173.93C210.925 173.475 211.333 173.245 211.478 173.535Z" fill="white"/>
<path d="M224.842 169.849C225.015 169.531 224.981 169.208 224.842 169.12L223.423 168.315C223.391 168.299 223.357 168.291 223.322 168.291C223.287 168.291 223.253 168.299 223.222 168.315L221.92 168.808L221.484 167.909C221.466 167.864 221.433 167.827 221.389 167.805L219.964 166.994C219.786 166.896 219.49 167.12 219.372 167.493L218.445 170.364C218.394 170.534 218.293 170.687 218.154 170.802L216.171 172.303C215.852 172.544 215.73 173.125 215.953 173.283L217.394 174.302C217.444 174.352 217.479 174.414 217.498 174.481C217.517 174.548 217.517 174.618 217.501 174.686L217.165 177.463C217.137 177.666 217.193 177.803 217.288 177.852L218.696 178.636C218.808 178.696 218.97 178.636 219.126 178.455L220.903 176.231C220.94 176.17 220.992 176.119 221.055 176.084C221.117 176.048 221.188 176.029 221.261 176.028L223.037 176.242C223.316 176.275 223.646 175.776 223.596 175.398L223.261 173.004C223.242 172.827 223.282 172.649 223.372 172.495L224.842 169.849Z" fill="#FFB300"/>
<path opacity="0.15" d="M224.808 169.114C224.777 169.101 224.744 169.094 224.71 169.094C224.677 169.094 224.643 169.101 224.613 169.114L222.607 169.859C222.581 169.872 222.552 169.879 222.523 169.88C222.494 169.882 222.465 169.877 222.437 169.867C222.41 169.856 222.385 169.841 222.364 169.821C222.344 169.8 222.327 169.776 222.316 169.75L221.864 168.797L223.166 168.309C223.197 168.294 223.231 168.286 223.266 168.286C223.301 168.286 223.335 168.294 223.367 168.309L224.808 169.114Z" fill="white"/>
<path opacity="0.15" d="M219.869 171.147C219.82 171.318 219.718 171.471 219.579 171.585L217.579 173.103C217.488 173.172 217.415 173.262 217.367 173.366L215.953 172.555C216.008 172.454 216.082 172.365 216.171 172.292L218.154 170.791C218.293 170.676 218.394 170.523 218.445 170.353L219.869 171.147Z" fill="white"/>
<path opacity="0.1" d="M221.361 167.8C221.182 167.685 220.881 167.909 220.758 168.293L219.869 171.147L218.445 170.363L219.333 167.509C219.45 167.137 219.746 166.912 219.925 167.011C219.964 167.011 221.171 167.723 221.35 167.816L221.361 167.8Z" fill="#0A0A0A"/>
<path opacity="0.25" d="M218.819 175.08L217.406 174.286L215.97 173.267C215.808 173.146 215.83 172.818 215.97 172.549L217.4 173.36C217.255 173.623 217.232 173.957 217.4 174.072L218.819 175.08Z" fill="#0A0A0A"/>
<path opacity="0.15" d="M218.59 178.241C218.562 178.449 218.623 178.586 218.724 178.641L217.299 177.83C217.204 177.775 217.149 177.644 217.177 177.441L217.517 174.664C217.53 174.598 217.528 174.531 217.51 174.466C217.493 174.402 217.461 174.342 217.417 174.291L218.83 175.086C218.876 175.134 218.909 175.193 218.926 175.257C218.944 175.321 218.945 175.388 218.931 175.453L218.59 178.241Z" fill="#0A0A0A"/>
<path d="M221.445 167.898L222.333 169.75C222.344 169.776 222.36 169.801 222.381 169.821C222.402 169.841 222.427 169.856 222.454 169.867C222.481 169.877 222.511 169.882 222.54 169.88C222.569 169.879 222.598 169.872 222.624 169.859L224.613 169.114C224.926 168.994 225.054 169.432 224.825 169.848L223.389 172.494C223.298 172.649 223.259 172.827 223.277 173.004L223.613 175.398C223.669 175.776 223.339 176.274 223.054 176.242L221.277 176.028C221.205 176.029 221.134 176.048 221.072 176.084C221.009 176.119 220.957 176.17 220.92 176.231L219.143 178.455C218.858 178.811 218.529 178.685 218.585 178.241L218.925 175.464C218.94 175.396 218.938 175.325 218.919 175.258C218.899 175.191 218.863 175.13 218.814 175.08L217.378 174.067C217.149 173.902 217.272 173.327 217.59 173.086L219.573 171.585C219.714 171.472 219.815 171.319 219.864 171.147L220.752 168.293C220.897 167.838 221.305 167.624 221.445 167.898Z" fill="#FFB300"/>
<path opacity="0.5" d="M221.445 167.898L222.333 169.75C222.344 169.776 222.36 169.801 222.381 169.821C222.402 169.841 222.427 169.856 222.454 169.867C222.481 169.877 222.511 169.882 222.54 169.88C222.569 169.879 222.598 169.872 222.624 169.859L224.613 169.114C224.926 168.994 225.054 169.432 224.825 169.848L223.389 172.494C223.298 172.649 223.259 172.827 223.277 173.004L223.613 175.398C223.669 175.776 223.339 176.274 223.054 176.242L221.277 176.028C221.205 176.029 221.134 176.048 221.072 176.084C221.009 176.119 220.957 176.17 220.92 176.231L219.143 178.455C218.858 178.811 218.529 178.685 218.585 178.241L218.925 175.464C218.94 175.396 218.938 175.325 218.919 175.258C218.899 175.191 218.863 175.13 218.814 175.08L217.378 174.067C217.149 173.902 217.272 173.327 217.59 173.086L219.573 171.585C219.714 171.472 219.815 171.319 219.864 171.147L220.752 168.293C220.897 167.838 221.305 167.624 221.445 167.898Z" fill="white"/>
<path d="M234.797 164.211C234.965 163.894 234.937 163.57 234.797 163.483L233.356 162.694C233.324 162.68 233.29 162.673 233.255 162.673C233.221 162.673 233.186 162.68 233.155 162.694L231.848 163.187L231.417 162.288C231.4 162.244 231.366 162.207 231.322 162.184L229.898 161.374C229.719 161.275 229.417 161.5 229.306 161.872L228.417 164.726C228.367 164.897 228.265 165.05 228.127 165.165L226.138 166.666C225.825 166.907 225.696 167.482 225.925 167.646L227.361 168.665C227.413 168.714 227.451 168.775 227.47 168.842C227.49 168.909 227.491 168.981 227.473 169.049L227.132 171.826C227.132 172.029 227.166 172.16 227.261 172.215L228.685 173.026C228.803 173.086 228.965 173.026 229.121 172.845L230.892 170.621C230.93 170.559 230.983 170.508 231.047 170.473C231.11 170.437 231.182 170.418 231.255 170.418L233.026 170.632C233.311 170.665 233.641 170.166 233.585 169.788L233.25 167.394C233.232 167.218 233.269 167.04 233.356 166.885L234.797 164.211Z" fill="#FFB300"/>
<path opacity="0.15" d="M234.781 163.477C234.749 163.464 234.715 163.457 234.68 163.457C234.646 163.457 234.611 163.464 234.58 163.477L232.596 164.222C232.57 164.235 232.541 164.242 232.512 164.243C232.483 164.245 232.454 164.24 232.427 164.23C232.399 164.219 232.375 164.204 232.354 164.184C232.333 164.163 232.317 164.139 232.306 164.113L231.848 163.159L233.155 162.672C233.185 162.657 233.219 162.649 233.253 162.649C233.287 162.649 233.32 162.657 233.35 162.672L234.781 163.477Z" fill="white"/>
<path opacity="0.15" d="M229.87 165.504C229.819 165.677 229.718 165.831 229.579 165.948L227.596 167.449C227.505 167.52 227.43 167.61 227.378 167.712L225.953 166.901C226.009 166.801 226.083 166.712 226.171 166.638L228.155 165.137C228.293 165.022 228.395 164.87 228.445 164.699L229.87 165.504Z" fill="white"/>
<path opacity="0.1" d="M231.333 162.146C231.155 162.031 230.847 162.256 230.73 162.634L229.87 165.504L228.445 164.699L229.333 161.845C229.451 161.472 229.747 161.248 229.926 161.346C229.965 161.346 231.166 162.058 231.35 162.152L231.333 162.146Z" fill="#0A0A0A"/>
<path opacity="0.25" d="M228.786 169.443L227.378 168.649L225.925 167.624C225.763 167.504 225.78 167.175 225.925 166.907L227.35 167.718C227.21 167.98 227.188 168.315 227.35 168.43L228.786 169.443Z" fill="#0A0A0A"/>
<path opacity="0.15" d="M228.563 172.604C228.535 172.812 228.596 172.949 228.697 173.004L227.272 172.193C227.177 172.138 227.121 172.007 227.144 171.804L227.484 169.021C227.499 168.957 227.498 168.891 227.481 168.827C227.465 168.763 227.433 168.704 227.389 168.654L228.797 169.449C228.841 169.498 228.873 169.557 228.89 169.621C228.908 169.684 228.91 169.751 228.898 169.816L228.563 172.604Z" fill="#0A0A0A"/>
<path d="M231.417 162.261L232.306 164.113C232.316 164.139 232.333 164.164 232.354 164.184C232.374 164.204 232.399 164.219 232.426 164.23C232.454 164.24 232.483 164.245 232.512 164.243C232.541 164.242 232.57 164.235 232.596 164.222L234.579 163.477C234.898 163.357 235.021 163.795 234.797 164.211L233.356 166.857C233.269 167.013 233.232 167.19 233.25 167.367L233.585 169.761C233.641 170.139 233.311 170.637 233.026 170.604L231.255 170.391C231.182 170.391 231.11 170.41 231.047 170.445C230.983 170.481 230.93 170.532 230.892 170.594L229.121 172.818C228.836 173.174 228.507 173.048 228.562 172.604L228.898 169.827C228.914 169.759 228.914 169.688 228.895 169.621C228.876 169.554 228.841 169.493 228.792 169.443L227.35 168.424C227.127 168.265 227.25 167.685 227.568 167.449L229.551 165.948C229.69 165.833 229.791 165.681 229.842 165.51L230.73 162.656C230.87 162.201 231.278 161.971 231.417 162.261Z" fill="#FFB300"/>
<path opacity="0.5" d="M231.417 162.261L232.306 164.113C232.316 164.139 232.333 164.164 232.354 164.184C232.374 164.204 232.399 164.219 232.426 164.23C232.454 164.24 232.483 164.245 232.512 164.243C232.541 164.242 232.57 164.235 232.596 164.222L234.579 163.477C234.898 163.357 235.021 163.795 234.797 164.211L233.356 166.857C233.269 167.013 233.232 167.19 233.25 167.367L233.585 169.761C233.641 170.139 233.311 170.637 233.026 170.604L231.255 170.391C231.182 170.391 231.11 170.41 231.047 170.445C230.983 170.481 230.93 170.532 230.892 170.594L229.121 172.818C228.836 173.174 228.507 173.048 228.562 172.604L228.898 169.827C228.914 169.759 228.914 169.688 228.895 169.621C228.876 169.554 228.841 169.493 228.792 169.443L227.35 168.424C227.127 168.265 227.25 167.685 227.568 167.449L229.551 165.948C229.69 165.833 229.791 165.681 229.842 165.51L230.73 162.656C230.87 162.201 231.278 161.971 231.417 162.261Z" fill="white"/>
<path d="M244.764 158.574C244.937 158.257 244.91 157.933 244.764 157.846L243.345 157.035C243.314 157.021 243.279 157.014 243.245 157.014C243.21 157.014 243.176 157.021 243.144 157.035L241.837 157.528L241.407 156.629C241.388 156.584 241.354 156.546 241.312 156.52C241.133 156.427 239.926 155.737 239.887 155.715C239.708 155.616 239.407 155.841 239.289 156.213L238.401 159.067C238.352 159.238 238.253 159.39 238.116 159.506L236.127 161.007C235.814 161.248 235.686 161.823 235.915 161.987L237.351 163.006C237.401 163.054 237.438 163.114 237.458 163.181C237.478 163.247 237.479 163.317 237.462 163.384L237.122 166.162C237.122 166.364 237.155 166.501 237.25 166.556L238.675 167.367C238.786 167.427 238.954 167.367 239.105 167.186L240.881 164.962C240.919 164.901 240.971 164.851 241.033 164.815C241.096 164.78 241.167 164.76 241.239 164.759L243.016 164.973C243.301 165.006 243.63 164.507 243.574 164.129L243.233 161.735C243.22 161.558 243.259 161.382 243.345 161.226L244.764 158.574Z" fill="#FFB300"/>
<path opacity="0.15" d="M244.748 157.84C244.717 157.826 244.684 157.819 244.65 157.819C244.616 157.819 244.583 157.826 244.552 157.84L242.563 158.585C242.537 158.598 242.509 158.605 242.48 158.606C242.451 158.607 242.423 158.603 242.396 158.592C242.369 158.582 242.345 158.566 242.324 158.546C242.304 158.526 242.288 158.502 242.278 158.476L241.82 157.522L243.127 157.035C243.157 157.019 243.191 157.01 243.225 157.01C243.259 157.01 243.293 157.019 243.323 157.035L244.748 157.84Z" fill="white"/>
<path opacity="0.15" d="M239.814 159.867C239.764 160.04 239.663 160.194 239.524 160.311L237.541 161.812C237.449 161.883 237.375 161.973 237.323 162.075L235.898 161.264C235.951 161.164 236.023 161.075 236.11 161.001L238.094 159.5C238.236 159.387 238.339 159.234 238.39 159.062L239.814 159.867Z" fill="white"/>
<path opacity="0.1" d="M241.306 156.526C241.127 156.41 240.82 156.635 240.703 157.013L239.814 159.867L238.39 159.062L239.278 156.208C239.39 155.835 239.692 155.611 239.87 155.709C239.909 155.709 241.111 156.421 241.295 156.515L241.306 156.526Z" fill="#0A0A0A"/>
<path opacity="0.25" d="M238.758 163.789L237.351 162.995L235.915 161.976C235.747 161.856 235.769 161.527 235.915 161.259L237.339 162.069C237.194 162.332 237.177 162.666 237.339 162.781L238.758 163.789Z" fill="#0A0A0A"/>
<path opacity="0.15" d="M238.529 166.967C238.529 167.175 238.568 167.312 238.669 167.367L237.233 166.529C237.138 166.474 237.082 166.342 237.105 166.14L237.445 163.357C237.459 163.293 237.457 163.226 237.44 163.163C237.424 163.099 237.393 163.04 237.35 162.99L238.758 163.784C238.802 163.834 238.834 163.893 238.85 163.957C238.867 164.02 238.868 164.087 238.853 164.151L238.529 166.967Z" fill="#0A0A0A"/>
<path d="M241.39 156.624L242.278 158.476C242.289 158.502 242.305 158.526 242.326 158.547C242.347 158.567 242.372 158.582 242.399 158.593C242.426 158.603 242.455 158.608 242.485 158.606C242.514 158.605 242.542 158.598 242.569 158.585L244.552 157.84C244.87 157.72 244.993 158.158 244.764 158.574L243.328 161.22C243.242 161.376 243.203 161.553 243.217 161.73L243.557 164.124C243.613 164.502 243.284 165 242.999 164.967L241.222 164.754C241.15 164.755 241.079 164.774 241.017 164.81C240.954 164.845 240.902 164.896 240.865 164.956L239.088 167.181C238.809 167.537 238.479 167.411 238.529 166.967L238.87 164.19C238.888 164.122 238.887 164.05 238.867 163.983C238.848 163.916 238.81 163.854 238.758 163.806L237.323 162.787C237.094 162.628 237.222 162.048 237.535 161.812L239.524 160.311C239.662 160.195 239.762 160.043 239.814 159.873L240.703 157.013C240.842 156.564 241.25 156.334 241.39 156.624Z" fill="#FFB300"/>
<path opacity="0.5" d="M241.39 156.624L242.278 158.476C242.289 158.502 242.305 158.526 242.326 158.547C242.347 158.567 242.372 158.582 242.399 158.593C242.426 158.603 242.455 158.608 242.485 158.606C242.514 158.605 242.542 158.598 242.569 158.585L244.552 157.84C244.87 157.72 244.993 158.158 244.764 158.574L243.328 161.22C243.242 161.376 243.203 161.553 243.217 161.73L243.557 164.124C243.613 164.502 243.284 165 242.999 164.967L241.222 164.754C241.15 164.755 241.079 164.774 241.017 164.81C240.954 164.845 240.902 164.896 240.865 164.956L239.088 167.181C238.809 167.537 238.479 167.411 238.529 166.967L238.87 164.19C238.888 164.122 238.887 164.05 238.867 163.983C238.848 163.916 238.81 163.854 238.758 163.806L237.323 162.787C237.094 162.628 237.222 162.048 237.535 161.812L239.524 160.311C239.662 160.195 239.762 160.043 239.814 159.873L240.703 157.013C240.842 156.564 241.25 156.334 241.39 156.624Z" fill="white"/>
<path d="M254.737 152.937C254.91 152.619 254.882 152.296 254.737 152.203L253.312 151.398C253.281 151.384 253.248 151.377 253.214 151.377C253.181 151.377 253.147 151.384 253.117 151.398L251.809 151.891L251.379 150.992C251.356 150.949 251.324 150.912 251.284 150.883C251.1 150.79 249.893 150.099 249.859 150.078C249.675 149.979 249.379 150.198 249.262 150.576L248.373 153.43C248.325 153.602 248.223 153.755 248.083 153.868L246.072 155.364C245.753 155.605 245.63 156.18 245.859 156.345L247.295 157.364C247.346 157.411 247.383 157.472 247.402 157.538C247.422 157.604 247.424 157.674 247.407 157.742L247.077 160.503C247.077 160.705 247.111 160.842 247.206 160.897L248.63 161.708C248.742 161.768 248.91 161.708 249.06 161.527L250.837 159.303C250.874 159.242 250.926 159.191 250.989 159.156C251.052 159.121 251.122 159.101 251.195 159.1L252.971 159.314C253.251 159.347 253.58 158.848 253.53 158.47L253.189 156.076C253.173 155.899 253.212 155.722 253.301 155.567L254.737 152.937Z" fill="#FFB300"/>
<path opacity="0.15" d="M254.72 152.203C254.69 152.188 254.656 152.18 254.622 152.18C254.588 152.18 254.555 152.188 254.525 152.203L252.536 152.948C252.51 152.961 252.482 152.968 252.453 152.969C252.424 152.97 252.395 152.965 252.368 152.955C252.342 152.945 252.317 152.929 252.297 152.909C252.277 152.889 252.261 152.865 252.251 152.839L251.793 151.885L253.1 151.392C253.13 151.377 253.164 151.369 253.198 151.369C253.232 151.369 253.265 151.377 253.295 151.392L254.72 152.203Z" fill="white"/>
<path opacity="0.15" d="M249.787 154.23C249.734 154.403 249.631 154.557 249.491 154.674L247.507 156.175C247.418 156.246 247.345 156.336 247.295 156.438L245.87 155.627C245.922 155.526 245.994 155.436 246.083 155.364L248.066 153.863C248.207 153.75 248.308 153.597 248.357 153.425L249.787 154.23Z" fill="white"/>
<path opacity="0.1" d="M251.279 150.883C251.1 150.773 250.792 150.998 250.675 151.376L249.787 154.23L248.357 153.425L249.245 150.571C249.362 150.198 249.664 149.973 249.843 150.072C249.882 150.072 251.083 150.784 251.267 150.877L251.279 150.883Z" fill="#0A0A0A"/>
<path opacity="0.25" d="M248.731 158.169L247.318 157.375L245.882 156.356C245.714 156.235 245.736 155.906 245.882 155.638L247.306 156.449C247.161 156.712 247.139 157.046 247.306 157.161L248.731 158.169Z" fill="#0A0A0A"/>
<path opacity="0.15" d="M248.502 161.33C248.502 161.538 248.535 161.675 248.642 161.724L247.189 160.913C247.094 160.859 247.038 160.727 247.061 160.519L247.401 157.742C247.415 157.677 247.413 157.61 247.396 157.546C247.378 157.483 247.346 157.424 247.301 157.375L248.714 158.169C248.759 158.218 248.79 158.277 248.807 158.341C248.823 158.405 248.824 158.472 248.809 158.536L248.502 161.33Z" fill="#0A0A0A"/>
<path d="M251.362 150.987L252.251 152.839C252.261 152.865 252.278 152.889 252.298 152.909C252.319 152.93 252.344 152.945 252.371 152.956C252.399 152.966 252.428 152.97 252.457 152.969C252.486 152.968 252.515 152.961 252.541 152.948L254.524 152.203C254.837 152.083 254.966 152.521 254.737 152.937L253.301 155.572C253.212 155.727 253.173 155.905 253.189 156.082L253.53 158.476C253.58 158.854 253.251 159.352 252.971 159.319L251.195 159.106C251.122 159.107 251.052 159.126 250.989 159.162C250.926 159.197 250.874 159.248 250.837 159.308L249.06 161.533C248.781 161.889 248.451 161.757 248.502 161.319L248.843 158.541C248.859 158.473 248.857 158.403 248.837 158.335C248.818 158.268 248.781 158.207 248.731 158.158L247.295 157.139C247.066 156.98 247.194 156.399 247.507 156.164L249.496 154.663C249.631 154.546 249.73 154.394 249.781 154.225L250.669 151.365C250.815 150.927 251.223 150.691 251.362 150.987Z" fill="#FFB300"/>
<path opacity="0.5" d="M251.362 150.987L252.251 152.839C252.261 152.865 252.278 152.889 252.298 152.909C252.319 152.93 252.344 152.945 252.371 152.956C252.399 152.966 252.428 152.97 252.457 152.969C252.486 152.968 252.515 152.961 252.541 152.948L254.524 152.203C254.837 152.083 254.966 152.521 254.737 152.937L253.301 155.572C253.212 155.727 253.173 155.905 253.189 156.082L253.53 158.476C253.58 158.854 253.251 159.352 252.971 159.319L251.195 159.106C251.122 159.107 251.052 159.126 250.989 159.162C250.926 159.197 250.874 159.248 250.837 159.308L249.06 161.533C248.781 161.889 248.451 161.757 248.502 161.319L248.843 158.541C248.859 158.473 248.857 158.403 248.837 158.335C248.818 158.268 248.781 158.207 248.731 158.158L247.295 157.139C247.066 156.98 247.194 156.399 247.507 156.164L249.496 154.663C249.631 154.546 249.73 154.394 249.781 154.225L250.669 151.365C250.815 150.927 251.223 150.691 251.362 150.987Z" fill="white"/>
<path d="M202.796 46.0075C198.589 43.619 192.807 43.9423 186.415 47.5579C173.566 54.8439 163.124 72.6865 163.124 87.4175C163.124 94.8295 165.772 100.017 170.035 102.444C171.024 102.992 174.89 105.183 174.89 105.183C174.709 106.851 174.121 108.451 173.177 109.848C172.233 111.246 170.96 112.401 169.465 113.214C169.219 113.351 169.37 113.587 169.588 113.708L175.493 117.055C175.573 117.101 175.663 117.128 175.756 117.131C181.571 117.131 188.304 113.297 190.181 105.331C190.885 105.003 191.594 104.647 192.315 104.236C205.165 96.9551 215.606 79.107 215.606 64.3815C215.606 56.964 212.964 51.7816 208.701 49.3383L202.796 46.0075Z" fill="#37474F"/>
<path d="M192.315 50.8995C179.465 58.1801 169.024 76.0282 169.024 90.7537C169.024 100.751 173.823 106.734 180.929 107.281C180.661 110.459 179.717 114.031 175.342 116.556C174.996 116.759 175.448 117.137 175.739 117.137C181.555 117.137 188.287 113.302 190.164 105.337C190.868 105.008 191.578 104.652 192.298 104.241C205.148 96.9605 215.59 79.1124 215.59 64.3869C215.59 49.6615 205.176 43.619 192.315 50.8995Z" fill="#455A64"/>
<path d="M175.359 116.556C175.147 116.688 175.242 116.879 175.42 117.011L169.588 113.724C169.37 113.592 169.219 113.368 169.465 113.225C170.963 112.41 172.238 111.252 173.183 109.85C174.127 108.448 174.713 106.843 174.89 105.172L175.532 105.545L176.124 105.885C177.604 106.682 179.244 107.154 180.929 107.265C180.667 110.459 179.717 114.031 175.359 116.556Z" fill="#263238"/>
<path d="M189.857 93.0601C189.237 92.6273 188.924 91.8494 188.924 90.7264C188.937 89.5563 189.253 88.4086 189.84 87.3901C190.374 86.3721 191.186 85.5203 192.187 84.9304C193.136 84.3935 193.917 84.3296 194.527 84.7386C195.136 85.144 195.444 85.911 195.444 87.034C195.426 88.2247 195.105 89.392 194.511 90.4305C193.99 91.4589 193.185 92.3227 192.187 92.9231C191.259 93.4436 190.483 93.4929 189.857 93.0601ZM189.024 63.2804L195.343 59.7031L194.287 80.5861L190.08 82.9692L189.024 63.2804Z" fill="white"/>
<path opacity="0.2" d="M195.421 102.242C202.282 97.3112 208.198 89.4937 211.819 81.1011C204.958 86.037 199.042 93.8489 195.421 102.242Z" fill="#0A0A0A"/>
<path d="M239.289 130.783C236.909 130.811 235.138 129.178 234.026 127.124C241.155 118.528 245.976 107.079 245.976 97.0647C245.976 89.6417 243.323 84.4265 239.049 82.016L233.155 78.6853C228.948 76.3022 223.171 76.6309 216.785 80.2411C203.936 87.5272 193.494 105.37 193.494 120.101C193.494 127.513 196.136 132.701 200.399 135.138C201.394 135.686 205.31 137.91 206.276 138.464C210.489 140.869 216.282 140.551 222.685 136.924C224.399 135.946 226.027 134.828 227.551 133.583C231.875 136.941 237.149 133.281 239.239 131.528C239.518 131.298 239.551 130.783 239.289 130.783Z" fill="white"/>
<path d="M212.377 139.685C204.589 139.685 199.757 133.467 199.757 123.464C199.757 108.87 210.126 91.1427 222.864 83.9169C226.428 81.9009 229.836 80.8765 232.993 80.8765C240.775 80.8765 245.613 87.0888 245.613 97.0975C245.613 106.668 241.066 118.101 233.747 126.926L233.596 127.113L233.708 127.321C235.021 129.748 236.926 131.106 239.082 131.156C239.067 131.202 239.04 131.243 239.004 131.276C237.518 132.525 234.568 134.612 231.512 134.612C230.151 134.618 228.83 134.161 227.775 133.32L227.546 133.144L227.316 133.325C225.807 134.549 224.196 135.649 222.501 136.612C218.942 138.633 215.534 139.685 212.377 139.685Z" fill="white"/>
<path d="M232.993 80.5205V81.2327C240.552 81.2327 245.25 87.3135 245.25 97.0922C245.25 106.591 240.736 117.937 233.468 126.702L233.16 127.069L233.39 127.485C234.596 129.721 236.295 131.096 238.244 131.441C236.697 132.651 234.133 134.267 231.512 134.267C230.233 134.273 228.991 133.843 227.998 133.051L227.54 132.695L227.088 133.062C225.594 134.284 224 135.384 222.322 136.349C218.814 138.332 215.467 139.34 212.378 139.34C204.819 139.34 200.12 133.259 200.12 123.453C200.12 108.974 210.405 91.3729 223.026 84.2128C226.534 82.2297 229.881 81.2217 232.97 81.2217V80.5205M232.97 80.5205C229.864 80.5205 226.367 81.5121 222.663 83.6102C209.813 90.8908 199.371 108.733 199.371 123.464C199.371 133.955 204.662 140.041 212.355 140.041C215.461 140.041 218.959 139.05 222.663 136.952C224.377 135.973 226.005 134.855 227.529 133.61C228.646 134.505 230.047 134.989 231.49 134.98C234.686 134.98 237.742 132.788 239.217 131.556C239.496 131.326 239.529 130.811 239.267 130.811H239.211C236.865 130.811 235.11 129.195 234.004 127.151C241.133 118.556 245.954 107.106 245.954 97.0922C245.954 86.6013 240.664 80.5205 232.97 80.5205Z" fill="#FFB300"/>
<path d="M221.49 112.76C222.167 111.166 222.945 109.614 223.819 108.114C224.421 107.085 224.969 106.026 225.462 104.942C225.801 104.199 225.981 103.396 225.992 102.581C225.992 101.486 225.657 100.812 224.987 100.549C224.316 100.286 223.434 100.478 222.322 101.097C221.223 101.729 220.26 102.567 219.489 103.562C218.628 104.664 217.925 105.877 217.4 107.167L213.294 106.339C214.212 103.96 215.514 101.741 217.149 99.7655C218.748 97.8269 220.699 96.1945 222.903 94.9501C225.51 93.4893 227.598 93.0327 229.166 93.5806C230.734 94.1284 231.52 95.6952 231.523 98.2809C231.531 99.4481 231.377 100.611 231.065 101.738C230.79 102.758 230.416 103.751 229.948 104.701C229.507 105.589 228.931 106.646 228.233 107.873C227.556 109.006 226.944 110.174 226.4 111.374C226.026 112.24 225.836 113.172 225.842 114.113L220.719 117.016C220.698 115.562 220.96 114.118 221.49 112.76ZM220.931 126.855C220.311 126.423 219.998 125.645 219.998 124.516C220.011 123.346 220.327 122.198 220.914 121.18C221.447 120.163 222.258 119.312 223.255 118.72C224.21 118.172 224.987 118.118 225.601 118.528C226.216 118.939 226.518 119.706 226.518 120.829C226.499 122.018 226.178 123.184 225.585 124.22C225.064 125.25 224.256 126.114 223.255 126.713C222.355 127.239 221.584 127.283 220.959 126.855H220.931Z" fill="#455A64"/>
<path d="M103.485 87.8064L77.7852 102.4L87.9923 119.416C88.189 119.875 88.532 120.259 88.97 120.511C90.1879 121.185 97.4005 125.283 97.7971 125.508C98.1064 125.683 98.4522 125.787 98.8084 125.812C99.1647 125.837 99.5221 125.783 99.8539 125.653C100.186 125.523 100.483 125.322 100.724 125.063C100.965 124.804 101.143 124.496 101.244 124.16L112.328 92.8354L103.485 87.8064Z" fill="#FFB300"/>
<path opacity="0.2" d="M103.485 87.8064L77.7852 102.4L87.9923 119.416C88.189 119.875 88.532 120.259 88.97 120.511C90.1879 121.185 97.4005 125.283 97.7971 125.508C98.1064 125.683 98.4522 125.787 98.8084 125.812C99.1647 125.837 99.5221 125.783 99.8539 125.653C100.186 125.523 100.483 125.322 100.724 125.063C100.965 124.804 101.143 124.496 101.244 124.16L112.328 92.8354L103.485 87.8064Z" fill="#0A0A0A"/>
<path d="M86.6291 107.407L96.8362 124.423C97.0313 124.855 97.357 125.218 97.7694 125.463C98.1817 125.707 98.6608 125.822 99.1417 125.791C99.6227 125.76 100.082 125.585 100.458 125.289C100.834 124.993 101.109 124.592 101.244 124.138L112.328 92.8135L86.6291 107.407Z" fill="#FFB300"/>
<path d="M132.156 0.538209L35.2416 55.3917C34.5918 55.8047 34.0507 56.3624 33.6624 57.0192C33.2741 57.6761 33.0494 58.4136 33.0068 59.1717V125.124C33.048 125.88 33.2722 126.615 33.6608 127.268C34.0495 127.922 34.5913 128.475 35.2416 128.882L43.214 133.265C43.9073 133.607 44.6726 133.785 45.4487 133.785C46.2248 133.785 46.9901 133.607 47.6834 133.265L144.603 78.3784C145.252 77.9644 145.793 77.4066 146.181 76.7499C146.569 76.0933 146.794 75.3562 146.838 74.5984V8.64599C146.797 7.89064 146.572 7.15584 146.184 6.50236C145.795 5.84888 145.253 5.29548 144.603 4.88792L136.637 0.50534C135.939 0.167449 135.17 -0.005571 134.392 0.000136767C133.614 0.00584454 132.848 0.190121 132.156 0.538209Z" fill="#FFB300"/>
<path opacity="0.3" d="M146.799 8.24611C146.62 7.15046 145.71 6.75603 144.598 7.38055L47.689 62.2505C47.0286 62.6549 46.4874 63.2214 46.1191 63.894L33.7107 56.964C34.0831 56.3316 34.6089 55.7991 35.2415 55.4137L132.162 0.538238C132.855 0.197459 133.62 0.0200195 134.396 0.0200195C135.172 0.0200195 135.937 0.197459 136.631 0.538238L144.598 4.92082C145.184 5.29015 145.684 5.77769 146.064 6.35104C146.443 6.92439 146.694 7.5704 146.799 8.24611Z" fill="white"/>
<path d="M45.46 132.235V66.2771C45.5026 65.5197 45.7272 64.783 46.1156 64.127C46.504 63.471 47.0451 62.9144 47.6947 62.5026L144.604 7.66001C145.827 6.96428 146.838 7.52853 146.838 8.92V74.8505C146.794 75.6083 146.569 76.3453 146.181 77.002C145.793 77.6587 145.252 78.2165 144.604 78.6305L47.6835 133.495C46.4544 134.207 45.46 133.626 45.46 132.235Z" fill="#FFB300"/>
<path opacity="0.2" d="M47.6835 133.243C46.9876 133.576 46.2233 133.75 45.4487 133.75C44.6742 133.75 43.9099 133.576 43.214 133.243L35.2472 128.86C34.5975 128.455 34.0558 127.904 33.6672 127.252C33.2785 126.6 33.054 125.867 33.0125 125.113V59.1554C33.0522 58.3772 33.2966 57.6223 33.722 56.9641L46.1192 63.8831C45.7105 64.5276 45.4831 65.2666 45.4599 66.0251V131.978C45.4599 133.254 46.3762 133.988 47.6835 133.243Z" fill="#0A0A0A"/>
<path d="M72.6508 79.4247L71.6843 78.8769C71.3143 78.6693 70.8954 78.5601 70.4692 78.5601C70.0429 78.5601 69.624 78.6693 69.254 78.8769L63.3488 82.2186V74.308L74.2822 68.1231C74.794 67.827 75.218 67.4047 75.512 66.8983C75.806 66.3918 75.9598 65.8188 75.9582 65.2361V60.7987C75.9598 60.216 75.806 59.6429 75.512 59.1365C75.218 58.6301 74.794 58.2078 74.2822 57.9117C73.7651 57.6183 73.1783 57.4639 72.581 57.4639C71.9836 57.4639 71.3968 57.6183 70.8798 57.9117L55.7172 66.4961C54.8196 67.0036 54.0742 67.7342 53.5563 68.6142C53.0385 69.4943 52.7663 70.4926 52.7674 71.5087V112.699C52.7648 113.283 52.9181 113.857 53.2122 114.365C53.5063 114.872 53.9307 115.295 54.4434 115.592C54.9608 115.884 55.5475 116.038 56.1446 116.038C56.7417 116.038 57.3284 115.884 57.8458 115.592L61.628 113.455C62.1407 113.159 62.5652 112.736 62.8592 112.228C63.1533 111.721 63.3067 111.147 63.3041 110.563V94.4022L72.6117 89.1321C72.9805 88.9221 73.2866 88.6208 73.4993 88.2583C73.7121 87.8959 73.824 87.485 73.8241 87.0668V81.5009C73.8317 81.0843 73.7273 80.6731 73.5213 80.3086C73.3154 79.9441 73.0151 79.6392 72.6508 79.4247Z" fill="white"/>
<path opacity="0.1" d="M58.1922 115.395L57.8682 115.581C57.3508 115.873 56.7643 116.026 56.1675 116.026C55.5707 116.025 54.9845 115.871 54.4675 115.579C53.9505 115.287 53.5208 114.866 53.2215 114.36C52.9221 113.854 52.7637 113.279 52.7618 112.694V71.5033C52.7633 70.5467 53.0071 69.6055 53.4714 68.7642L56.8737 70.687C56.4075 71.5276 56.1636 72.4693 56.1642 73.4261V114.233C56.1652 114.466 56.228 114.694 56.3465 114.896C56.465 115.097 56.6351 115.265 56.8399 115.382C57.0447 115.499 57.2772 115.562 57.5144 115.565C57.7515 115.567 57.9852 115.508 58.1922 115.395Z" fill="#0A0A0A"/>
<path d="M63.3488 74.308V86.0753L72.6397 80.8216C72.7641 80.7499 72.9056 80.7118 73.0499 80.7113C73.1942 80.7107 73.336 80.7477 73.461 80.8184C73.5859 80.8891 73.6895 80.9911 73.7611 81.1139C73.8328 81.2367 73.8699 81.3759 73.8688 81.5174V87.0942C73.8685 87.5102 73.757 87.9189 73.5452 88.2794C73.3334 88.6399 73.0289 88.9396 72.6621 89.1485L63.3488 94.4186V110.574C63.3511 111.156 63.1976 111.729 62.9034 112.234C62.6093 112.74 62.185 113.161 61.6728 113.455L58.2313 115.406C58.0246 115.523 57.79 115.585 57.551 115.586C57.312 115.586 57.0772 115.524 56.8703 115.407C56.6634 115.29 56.4917 115.121 56.3726 114.918C56.2536 114.715 56.1913 114.484 56.1921 114.25V73.426C56.1922 72.4102 56.4649 71.4123 56.9826 70.5325C57.5004 69.6526 58.2451 68.9218 59.142 68.4134L74.1593 59.9112C74.3464 59.8053 74.5586 59.7496 74.7745 59.7498C74.9905 59.7499 75.2027 59.8058 75.3896 59.9119C75.5765 60.018 75.7316 60.1705 75.8393 60.3541C75.947 60.5376 76.0034 60.7458 76.003 60.9576V65.247C76.0044 65.8275 75.8504 66.3982 75.5563 66.902C75.2621 67.4058 74.8382 67.825 74.3269 68.1176L63.3488 74.308Z" fill="white"/>
<path d="M95.7859 49.426C95.6138 48.8541 95.3116 48.3279 94.9021 47.887C94.4927 47.4461 93.9866 47.102 93.4219 46.8805C92.8573 46.659 92.2488 46.566 91.6422 46.6084C91.0356 46.6507 90.4467 46.8274 89.9198 47.1251L86.1599 49.2562C85.6755 49.5298 85.2548 49.8998 84.9248 50.3422C84.5948 50.7847 84.3628 51.2899 84.2436 51.8254L73.0308 101.886C72.943 102.307 72.9923 102.746 73.1716 103.139C73.351 103.532 73.6515 103.86 74.0309 104.077L75.0588 104.658C75.3773 104.838 75.7386 104.933 76.1064 104.933C76.4741 104.933 76.8354 104.838 77.1539 104.658L81.6848 102.094C82.3154 101.715 82.829 101.175 83.1709 100.532C83.5531 99.8833 83.8337 99.1815 84.0033 98.4507L85.8246 89.3239L94.987 84.1361L95.9368 87.8448C96.0712 88.3284 96.3785 88.7484 96.8027 89.0281C97.1826 89.2472 99.8252 90.7318 100.205 90.9565C100.45 91.0595 100.72 91.0955 100.984 91.0608C101.249 91.0261 101.499 90.9219 101.708 90.7592L107.239 87.6257L95.7859 49.426ZM88.3387 76.724L90.2997 66.8248L90.417 66.277L92.4953 74.3684L88.3387 76.724Z" fill="white"/>
<path opacity="0.1" d="M100.16 90.929C99.6631 90.6386 97.1714 89.2417 96.8082 89.028C96.384 88.7484 96.0767 88.3283 95.9423 87.8447L94.9925 84.136L97.5289 82.7007L99.3446 89.7676C99.4786 90.2323 99.7653 90.6406 100.16 90.929Z" fill="#0A0A0A"/>
<path opacity="0.1" d="M95.8976 76.2913L92.4952 74.363L90.4169 66.2771C90.4169 66.2771 90.4169 66.2771 90.4169 66.2443C90.5957 65.4554 90.7745 64.557 90.9756 63.5599C91.2158 62.3164 91.4393 60.9906 91.6516 59.5718C91.8937 60.7112 92.1339 61.7612 92.3723 62.7218C92.6125 63.6805 92.836 64.5022 93.0483 65.1924L95.8976 76.2913Z" fill="#0A0A0A"/>
<path opacity="0.1" d="M76.4947 103.529C76.4643 103.661 76.4694 103.797 76.5093 103.926C76.5492 104.055 76.6226 104.172 76.7223 104.265C76.822 104.358 76.9446 104.423 77.078 104.456C77.2115 104.488 77.3512 104.486 77.4835 104.449V104.493L77.1651 104.669C76.8466 104.849 76.4853 104.944 76.1175 104.944C75.7498 104.944 75.3885 104.849 75.07 104.669L74.0309 104.077C73.6515 103.86 73.351 103.532 73.1716 103.139C72.9923 102.746 72.943 102.307 73.0308 101.886L84.238 51.8474C84.3408 51.3845 84.5302 50.9443 84.7967 50.5491L88.199 52.4774C87.9294 52.869 87.7397 53.308 87.6404 53.7703L76.4947 103.529Z" fill="#0A0A0A"/>
<path d="M107.245 87.6422L101.708 90.7758C101.088 91.1264 100.591 91.1921 100.211 90.973C99.7872 90.6926 99.48 90.2728 99.3447 89.7897L97.529 82.7118L85.7967 89.335L83.981 98.4617C83.8059 99.1935 83.5236 99.8965 83.143 100.549C82.8029 101.192 82.2887 101.73 81.6569 102.105L77.6511 104.378C77.5164 104.453 77.3624 104.489 77.2077 104.48C77.053 104.471 76.9041 104.419 76.779 104.329C76.6539 104.239 76.5579 104.116 76.5025 103.974C76.4471 103.832 76.4347 103.678 76.4667 103.529L87.6124 53.7539C87.7323 53.2193 87.9647 52.7152 88.2947 52.2737C88.6247 51.8322 89.045 51.4631 89.5287 51.1901L93.1434 49.1412C93.4004 48.9959 93.6876 48.9098 93.9835 48.8891C94.2794 48.8685 94.5762 48.9139 94.8515 49.022C95.1269 49.1302 95.3737 49.2981 95.5733 49.5133C95.7729 49.7284 95.9201 49.9852 96.0038 50.2642L107.245 87.6422ZM95.8977 76.3023L93.0484 65.1815C92.8361 64.4967 92.6126 63.6695 92.3724 62.7108C92.1322 61.7521 91.8919 60.7003 91.6517 59.5608C91.445 60.9797 91.2159 62.2999 90.9813 63.5489C90.7466 64.798 90.512 65.8717 90.2997 66.803L87.4728 81.0464L95.8977 76.3023Z" fill="white"/>
<path d="M133.726 68.4683C134.702 66.8236 135.559 65.1139 136.29 63.3516C137.046 61.535 137.681 59.6721 138.19 57.7748C138.704 55.8576 139.096 53.9109 139.363 51.946C139.637 49.9614 139.775 47.961 139.776 45.9583C139.836 43.0138 139.452 40.0768 138.637 37.2424C138.055 35.1123 136.942 33.158 135.396 31.556C134.91 31.0989 134.365 30.7049 133.776 30.3836L130.424 28.4772C129.363 27.874 128.169 27.5301 126.944 27.4747C124.977 27.3651 122.798 27.9878 120.407 29.3428C117.905 30.7837 115.687 32.6542 113.859 34.8648C111.844 37.2636 110.147 39.9032 108.809 42.7206C105.929 48.797 104.427 55.4132 104.406 62.1136C104.348 65.0623 104.736 68.0031 105.557 70.8404C106.137 72.9767 107.255 74.9359 108.809 76.5377C109.293 77.0088 109.84 77.4142 110.435 77.743C110.993 78.0497 113.2 79.3097 113.748 79.622C114.822 80.2318 116.032 80.5759 117.273 80.6245C119.239 80.7195 121.422 80.0895 123.821 78.7345C124.841 78.1568 125.811 77.4972 126.72 76.7624L128.106 78.3237C128.294 78.5136 128.509 78.6777 128.743 78.8112C129.134 79.0358 131.916 80.6026 132.128 80.7286C132.501 80.9535 132.937 81.057 133.374 81.0244C134.183 80.9297 134.96 80.6583 135.648 80.2301L141.52 76.9103L133.726 68.4683ZM128.486 54.7179C128.13 56.6507 127.558 58.5393 126.782 60.3496C126.101 61.9538 125.188 63.4537 124.072 64.8034C123.053 66.035 121.815 67.0762 120.418 67.8767C119.395 68.5267 118.216 68.9044 116.999 68.9723C116.387 67.9993 115.95 66.9299 115.708 65.8114C115.279 63.8756 115.08 61.8975 115.116 59.9168C115.106 57.7231 115.304 55.5333 115.708 53.3758C116.055 51.4441 116.617 49.5556 117.385 47.7442C118.072 46.1329 118.99 44.6258 120.111 43.2684C121.137 42.0203 122.387 40.9659 123.798 40.1568C124.803 39.5266 125.959 39.1641 127.15 39.105C127.769 40.0864 128.211 41.1649 128.458 42.2933C128.896 44.2318 129.104 46.2135 129.078 48.1989C129.084 50.3923 128.886 52.5818 128.486 54.7399V54.7179Z" fill="white"/>
<path opacity="0.1" d="M113.608 79.5618C112.898 79.1619 110.949 78.0498 110.435 77.765C109.84 77.4362 109.293 77.0308 108.809 76.5597C107.255 74.9579 106.137 72.9987 105.557 70.8624C104.736 68.0251 104.348 65.0843 104.406 62.1356C104.406 58.7621 104.792 55.3994 105.557 52.1104C106.239 49.1151 107.227 46.195 108.507 43.3945L111.909 45.3229C109.222 51.2281 107.825 57.6194 107.809 64.0858C107.75 67.0327 108.138 69.9718 108.96 72.8072C109.538 74.9456 110.656 76.9068 112.211 78.51C112.636 78.9098 113.104 79.2625 113.608 79.5618Z" fill="#0A0A0A"/>
<path opacity="0.1" d="M130.184 40.5293C129.855 40.1254 129.445 39.7927 128.979 39.5522C128.512 39.3118 128 39.1688 127.474 39.1323C127.379 39.1323 127.279 39.1323 127.184 39.1323C127.8 40.1126 128.24 41.1891 128.486 42.3152C128.913 44.2476 129.111 46.2218 129.078 48.1988C129.087 50.4033 128.888 52.6039 128.486 54.7727C128.13 56.7054 127.558 58.594 126.782 60.4043C126.101 62.0085 125.188 63.5085 124.072 64.8581C123.053 66.0898 121.815 67.1309 120.418 67.9314C119.395 68.5815 118.217 68.9591 116.999 69.027C117.121 69.2194 117.257 69.4025 117.407 69.5749C117.735 69.9819 118.148 70.3152 118.618 70.5524C119.088 70.7896 119.605 70.9252 120.133 70.9499C121.445 70.9435 122.726 70.5627 123.821 69.8542C125.217 69.0538 126.455 68.0126 127.474 66.781C128.588 65.4297 129.501 63.9301 130.184 62.3272C130.961 60.5152 131.533 58.6248 131.888 56.6901C132.291 54.5213 132.489 52.3207 132.48 50.1162C132.513 48.1447 132.314 46.176 131.888 44.249C131.622 42.8963 131.038 41.6229 130.184 40.5293Z" fill="#0A0A0A"/>
<path opacity="0.1" d="M127.687 75.9626C127.368 76.2475 127.05 76.5105 126.72 76.7844L128.106 78.3457C128.294 78.5357 128.509 78.6997 128.742 78.8332C129.122 79.0524 131.743 80.526 132.095 80.7342C131.878 80.6039 131.679 80.4475 131.502 80.2685L127.687 75.9626Z" fill="#0A0A0A"/>
<path d="M141.52 76.9323L135.648 80.2576C134.96 80.6811 134.186 80.9505 133.38 81.0464C133.028 81.0635 132.677 81.0024 132.353 80.8676C132.029 80.7329 131.74 80.5281 131.508 80.2685L127.687 75.9626C126.505 77.0289 125.209 77.9657 123.82 78.7565C121.422 80.1115 119.239 80.7415 117.273 80.6465C115.368 80.5779 113.561 79.807 112.211 78.4881C110.658 76.8835 109.54 74.9228 108.96 72.7853C108.143 69.9565 107.755 67.0253 107.809 64.0858C107.83 57.3855 109.332 50.7693 112.211 44.6929C113.551 41.8692 115.252 39.2239 117.273 36.8207C119.101 34.6113 121.319 32.741 123.82 31.2986C126.212 29.94 128.39 29.3173 130.357 29.4305C132.253 29.5193 134.047 30.3011 135.385 31.6218C136.934 33.2237 138.048 35.1807 138.626 37.3137C139.446 40.1381 139.833 43.0661 139.776 46.0022C139.777 48.0048 139.641 50.0052 139.369 51.9899C139.096 53.9638 138.7 55.9195 138.184 57.8461C137.673 59.7418 137.037 61.6028 136.279 63.4175C135.55 65.1807 134.693 66.8906 133.715 68.5342L141.52 76.9323ZM115.116 59.9498C115.08 61.9323 115.279 63.9122 115.708 65.8498C115.972 67.1952 116.545 68.4637 117.384 69.5586C117.714 69.9632 118.128 70.2949 118.598 70.5319C119.068 70.7689 119.583 70.9058 120.111 70.9336C121.422 70.9266 122.703 70.5459 123.798 69.838C125.195 69.0375 126.432 67.9964 127.452 66.7647C128.567 65.4136 129.482 63.9141 130.167 62.3109C130.935 60.4978 131.497 58.6074 131.843 56.6738C132.249 54.5054 132.447 52.3045 132.435 50.0999C132.471 48.1283 132.272 46.1593 131.843 44.2327C131.581 42.887 131.008 41.6182 130.167 40.524C129.837 40.1199 129.426 39.7872 128.959 39.5467C128.491 39.3063 127.978 39.1634 127.452 39.127C126.155 39.1166 124.884 39.4825 123.798 40.1788C122.385 40.9842 121.136 42.037 120.111 43.285C118.992 44.6437 118.074 46.1505 117.384 47.7607C116.62 49.573 116.058 51.4612 115.708 53.3923C115.305 55.5481 115.106 57.736 115.116 59.9279V59.9498Z" fill="white"/>
</svg>
