<svg width="393" height="320" viewBox="0 0 393 320" fill="none" xmlns="http://www.w3.org/2000/svg">
<path d="M198.758 258.909C251.319 258.909 293.927 214.864 293.927 160.531C293.927 106.199 251.319 62.1536 198.758 62.1536C146.198 62.1536 103.589 106.199 103.589 160.531C103.589 214.864 146.198 258.909 198.758 258.909Z" fill="white"/>
<path d="M323.099 141.36V131.468C323.099 129.582 322.374 127.773 321.084 126.439C319.793 125.105 318.043 124.356 316.219 124.356H291.933C290.108 124.356 288.358 123.606 287.068 122.273C285.778 120.939 285.053 119.13 285.053 117.243V107.351C285.053 105.465 285.778 103.656 287.068 102.322C288.358 100.988 290.108 100.239 291.933 100.239H292.7C293.603 100.239 294.498 100.055 295.333 99.6977C296.168 99.3402 296.926 98.8164 297.565 98.1559C298.204 97.4955 298.711 96.7114 299.057 95.8485C299.402 94.9856 299.58 94.0607 299.58 93.1267V83.2347C299.58 82.3007 299.402 81.3758 299.057 80.5129C298.711 79.65 298.204 78.8659 297.565 78.2055C296.926 77.545 296.168 77.0211 295.333 76.6637C294.498 76.3063 293.603 76.1223 292.7 76.1223H116.253C114.428 76.1223 112.678 76.8716 111.388 78.2055C110.097 79.5393 109.372 81.3484 109.372 83.2347V93.1267C109.372 94.0607 109.55 94.9856 109.896 95.8485C110.242 96.7114 110.749 97.4955 111.388 98.1559C112.026 98.8164 112.785 99.3402 113.62 99.6977C114.454 100.055 115.349 100.239 116.253 100.239C117.156 100.239 118.051 100.423 118.886 100.78C119.72 101.138 120.479 101.662 121.118 102.322C121.757 102.983 122.264 103.767 122.609 104.63C122.955 105.493 123.133 106.417 123.133 107.351V117.243C123.133 118.177 122.955 119.102 122.609 119.965C122.264 120.828 121.757 121.612 121.118 122.273C120.479 122.933 119.72 123.457 118.886 123.814C118.051 124.172 117.156 124.356 116.253 124.356H89.6456C87.8208 124.356 86.0707 125.105 84.7804 126.439C83.4901 127.773 82.7652 129.582 82.7652 131.468V141.36C82.7652 143.247 83.4901 145.056 84.7804 146.389C86.0707 147.723 87.8208 148.473 89.6456 148.473H100.086C100.989 148.473 101.884 148.657 102.719 149.014C103.554 149.371 104.312 149.895 104.951 150.556C105.59 151.216 106.097 152 106.442 152.863C106.788 153.726 106.966 154.651 106.966 155.585V165.477C106.966 166.411 106.788 167.336 106.442 168.199C106.097 169.062 105.59 169.846 104.951 170.506C104.312 171.167 103.554 171.691 102.719 172.048C101.884 172.405 100.989 172.589 100.086 172.589H100.061C99.157 172.589 98.2623 172.773 97.4276 173.131C96.5928 173.488 95.8343 174.012 95.1954 174.673C94.5565 175.333 94.0497 176.117 93.7039 176.98C93.3581 177.843 93.1802 178.768 93.1802 179.702V189.594C93.1802 191.48 93.9051 193.289 95.1954 194.623C96.4857 195.957 98.2358 196.706 100.061 196.706H101.571C103.396 196.706 105.146 197.455 106.436 198.789C107.727 200.123 108.451 201.932 108.451 203.818V213.711C108.451 214.645 108.273 215.569 107.928 216.432C107.582 217.295 107.075 218.079 106.436 218.74C105.797 219.4 105.039 219.924 104.204 220.282C103.369 220.639 102.475 220.823 101.571 220.823H76.7814C74.9566 220.823 73.2065 221.572 71.9162 222.906C70.6259 224.24 69.901 226.049 69.901 227.935V237.827C69.901 238.761 70.079 239.686 70.4247 240.549C70.7705 241.412 71.2773 242.196 71.9162 242.856C72.5551 243.517 73.3136 244.041 74.1484 244.398C74.9832 244.756 75.8779 244.94 76.7814 244.94H296.394C297.297 244.94 298.192 244.756 299.027 244.398C299.862 244.041 300.62 243.517 301.259 242.856C301.898 242.196 302.405 241.412 302.75 240.549C303.096 239.686 303.274 238.761 303.274 237.827V227.935C303.274 226.049 302.549 224.24 301.259 222.906C299.969 221.572 298.219 220.823 296.394 220.823H290.428C289.525 220.823 288.63 220.639 287.795 220.282C286.96 219.924 286.202 219.4 285.563 218.74C284.924 218.079 284.417 217.295 284.072 216.432C283.726 215.569 283.548 214.645 283.548 213.711V203.818C283.548 202.884 283.726 201.96 284.072 201.097C284.417 200.234 284.924 199.45 285.563 198.789C286.202 198.129 286.96 197.605 287.795 197.248C288.63 196.89 289.525 196.706 290.428 196.706H304.495C305.398 196.706 306.293 196.522 307.128 196.165C307.962 195.807 308.721 195.283 309.36 194.623C309.999 193.962 310.505 193.178 310.851 192.316C311.197 191.453 311.375 190.528 311.375 189.594V179.702C311.375 178.768 311.197 177.843 310.851 176.98C310.505 176.117 309.999 175.333 309.36 174.673C308.721 174.012 307.962 173.488 307.128 173.131C306.293 172.773 305.398 172.589 304.495 172.589H300.228C298.403 172.589 296.653 171.84 295.362 170.506C294.072 169.172 293.347 167.363 293.347 165.477V155.585C293.347 153.699 294.072 151.89 295.362 150.556C296.653 149.222 298.403 148.473 300.228 148.473H316.219C318.043 148.473 319.793 147.723 321.084 146.389C322.374 145.056 323.099 143.247 323.099 141.36Z" fill="white"/>
<path d="M237.706 78.9062H256.038" stroke="white" stroke-width="3" stroke-miterlimit="10" stroke-linecap="round"/>
<path d="M237.706 84.3682H256.038" stroke="white" stroke-width="3" stroke-miterlimit="10" stroke-linecap="round"/>
<path d="M250.406 225.465H268.738" stroke="white" stroke-width="3" stroke-miterlimit="10" stroke-linecap="round"/>
<path d="M250.406 230.927H268.738" stroke="white" stroke-width="3" stroke-miterlimit="10" stroke-linecap="round"/>
<path d="M250.406 236.389H268.738" stroke="white" stroke-width="3" stroke-miterlimit="10" stroke-linecap="round"/>
<path d="M98.2669 135.124H116.599" stroke="white" stroke-width="3" stroke-miterlimit="10" stroke-linecap="round"/>
<path d="M98.2669 140.586H116.599" stroke="white" stroke-width="3" stroke-miterlimit="10" stroke-linecap="round"/>
<path d="M98.2669 146.048H116.599" stroke="white" stroke-width="3" stroke-miterlimit="10" stroke-linecap="round"/>
<path d="M299.463 207.412L228.433 214.799L157.403 207.412C157.104 207.381 156.828 207.237 156.627 207.007C156.426 206.777 156.314 206.478 156.314 206.168L154.641 201.108L156.314 118.199L228.433 125.699L300.552 118.199L302.143 201.783L300.552 206.168C300.551 206.478 300.44 206.777 300.239 207.007C300.038 207.237 299.762 207.381 299.463 207.412Z" fill="#E06714"/>
<path d="M302.143 201.783L228.433 209.136L154.641 201.108L156.314 113.918C156.314 113.744 156.35 113.571 156.418 113.411C156.487 113.251 156.587 113.108 156.713 112.991C156.838 112.874 156.986 112.785 157.146 112.731C157.307 112.676 157.477 112.657 157.645 112.674L228.433 120.036L299.221 112.675C299.389 112.657 299.559 112.676 299.72 112.731C299.88 112.785 300.028 112.874 300.153 112.991C300.279 113.108 300.379 113.251 300.448 113.411C300.516 113.571 300.552 113.744 300.552 113.918L302.143 201.783Z" fill="#FF8800"/>
<path d="M227.852 203.286L298.733 196.158L295.777 113.032L233.143 119.546L227.852 203.286Z" fill="#E06714"/>
<path d="M227.852 110.286L289.813 103.086L292.683 196.766L227.852 203.286V110.286Z" fill="#E06714"/>
<path d="M231.335 109.686L166.182 108.486L169.664 199.686L227.852 203.286L231.335 109.686Z" fill="#E06714"/>
<path d="M228.433 105.336L290.394 98.1362L294.747 192.036L228.433 198.336V105.336Z" fill="#FFB300"/>
<path d="M228.433 195.227V198.336L294.747 192.036L294.604 188.941L228.433 195.227Z" fill="#E59413"/>
<path d="M228.433 105.336L163.279 104.136L166.762 195.336L228.433 198.336V105.336Z" fill="#FFB300"/>
<path d="M166.762 195.336L228.433 198.336V195.134L166.762 192.133V195.336Z" fill="#E59413"/>
<path d="M170.865 164.908C171.051 172.239 173.54 179.309 177.955 185.049C182.371 190.788 188.473 194.888 195.34 196.727L222.484 198.047V109.236C222.484 109.236 201.975 110.742 180.709 104.457L169.33 104.248L170.865 164.908Z" fill="#E59413"/>
<path d="M263.042 195.048C269.742 190.107 275.133 183.504 278.719 175.846C282.305 168.188 283.972 159.722 283.566 151.224L281.079 99.2185L266.052 100.965C252.316 108.154 235.518 112.66 235.518 112.66V197.663L263.042 195.048Z" fill="#E59413"/>
<path d="M228.433 105.336C228.433 105.336 263.114 96.0362 273.561 82.8362L276.481 143.901C277.047 155.738 273.588 167.407 266.704 176.884C259.82 186.362 249.945 193.051 238.79 195.791L228.433 198.336V105.336Z" fill="#FFB300"/>
<path d="M237.652 105.336L228.433 198.336C228.433 198.336 240.173 197.419 241.093 197.134C251.402 187.358 257.271 170.934 255.873 156.343L250.254 97.7307C246.523 99.3133 242.866 100.683 239.643 101.807C238.46 103.932 237.652 105.336 237.652 105.336Z" fill="#E59413"/>
<path d="M228.433 105.336C228.433 105.336 238.445 87.9362 239.606 82.8362L246.653 156.343C247.423 164.377 246.147 172.48 242.951 179.847C239.754 187.213 234.75 193.587 228.433 198.336L228.433 105.336Z" fill="#FFB300"/>
<path d="M228.433 105.336C228.433 105.336 199.847 107.436 175.178 96.3362L176.814 161.008C177.009 168.7 179.737 176.093 184.548 181.965C189.36 187.836 195.965 191.834 203.273 193.298L228.433 198.336V105.336Z" fill="#FFB300"/>
<path d="M228.433 105.336C228.933 113.086 229.195 120.836 229.373 128.586C229.484 132.461 229.509 136.336 229.575 140.211L229.642 151.836L229.578 163.461C229.511 167.336 229.489 171.211 229.377 175.086C229.2 182.836 228.936 190.586 228.433 198.336C227.93 190.586 227.667 182.836 227.489 175.086C227.377 171.211 227.355 167.336 227.288 163.461L227.225 151.836L227.291 140.211C227.357 136.336 227.382 132.461 227.493 128.586C227.671 120.836 227.933 113.086 228.433 105.336Z" fill="#E59413"/>
<path d="M186.202 118.433C189.251 118.7 192.241 119.079 195.23 119.442L204.163 120.548C207.136 120.91 210.107 121.212 213.089 121.513C216.075 121.807 219.06 121.989 222.116 122.258C219.138 123.002 216.092 123.411 213.03 123.478C209.975 123.547 206.92 123.397 203.885 123.031C200.858 122.663 197.854 122.109 194.891 121.37C191.919 120.648 189.012 119.666 186.202 118.433Z" fill="#E59413"/>
<path d="M186.202 131.78C189.251 132.047 192.241 132.426 195.23 132.789L204.163 133.895C207.136 134.257 210.107 134.559 213.089 134.86C216.075 135.154 219.06 135.336 222.116 135.605C219.138 136.349 216.092 136.758 213.03 136.825C209.975 136.894 206.92 136.745 203.885 136.378C200.858 136.011 197.854 135.456 194.891 134.717C191.919 133.995 189.012 133.013 186.202 131.78Z" fill="#E59413"/>
<path d="M186.202 145.127C189.251 145.394 192.241 145.773 195.23 146.137L204.163 147.242C207.136 147.604 210.107 147.906 213.089 148.208C216.075 148.501 219.06 148.683 222.116 148.952C219.138 149.696 216.092 150.105 213.03 150.172C209.975 150.241 206.92 150.092 203.885 149.725C200.858 149.358 197.854 148.803 194.891 148.064C191.919 147.343 189.012 146.36 186.202 145.127Z" fill="#E59413"/>
<path d="M186.202 158.475C189.251 158.741 192.241 159.121 195.23 159.484L204.163 160.589C207.136 160.951 210.107 161.253 213.089 161.555C216.075 161.849 219.06 162.03 222.116 162.3C219.138 163.043 216.092 163.452 213.03 163.52C209.975 163.588 206.92 163.439 203.885 163.072C200.858 162.705 197.854 162.15 194.891 161.411C191.919 160.69 189.012 159.707 186.202 158.475Z" fill="#E59413"/>
<path d="M186.202 171.822C189.251 172.088 192.241 172.468 195.23 172.831L204.163 173.937C207.136 174.298 210.107 174.6 213.089 174.902C216.075 175.196 219.06 175.378 222.116 175.647C219.138 176.39 216.092 176.799 213.03 176.867C209.975 176.936 206.92 176.786 203.885 176.419C200.858 176.052 197.854 175.497 194.891 174.758C191.919 174.037 189.012 173.054 186.202 171.822Z" fill="#E59413"/>
<path d="M271.58 120.219L257.495 122.675C257.339 122.706 257.178 122.705 257.023 122.673C256.867 122.64 256.719 122.576 256.588 122.484C256.456 122.392 256.343 122.274 256.256 122.137C256.168 122 256.107 121.847 256.077 121.686L255.61 111.168C255.58 111.007 255.58 110.841 255.612 110.68C255.644 110.52 255.706 110.367 255.795 110.231C255.884 110.095 255.997 109.978 256.13 109.887C256.262 109.797 256.411 109.734 256.567 109.703L270.833 106.672C270.989 106.641 271.149 106.642 271.305 106.674C271.46 106.707 271.608 106.771 271.74 106.863C271.871 106.955 271.984 107.073 272.072 107.21C272.159 107.346 272.22 107.5 272.25 107.661L272.537 118.754C272.598 119.079 272.531 119.417 272.352 119.691C272.173 119.966 271.895 120.156 271.58 120.219Z" fill="#FF8800"/>
<path d="M263.584 146.132L249.498 148.588C249.342 148.619 249.182 148.618 249.026 148.585C248.871 148.553 248.723 148.488 248.591 148.397C248.46 148.305 248.347 148.187 248.259 148.05C248.172 147.913 248.111 147.76 248.081 147.599L247.614 137.081C247.553 136.756 247.619 136.418 247.798 136.144C247.978 135.869 248.255 135.679 248.57 135.616L262.837 132.585C262.993 132.554 263.153 132.554 263.308 132.587C263.464 132.62 263.612 132.684 263.744 132.776C263.875 132.868 263.988 132.985 264.076 133.122C264.163 133.259 264.224 133.413 264.254 133.574L264.541 144.667C264.571 144.828 264.57 144.994 264.538 145.155C264.507 145.315 264.445 145.468 264.356 145.604C264.267 145.74 264.153 145.857 264.021 145.948C263.888 146.038 263.74 146.101 263.584 146.132Z" fill="#FF8800"/>
<path d="M248.57 135.616C248.256 135.679 247.978 135.869 247.798 136.143C247.619 136.418 247.553 136.755 247.614 137.081L248.081 147.599C248.142 147.924 248.326 148.211 248.591 148.397C248.857 148.582 249.183 148.651 249.498 148.588L255.037 147.622L253.779 134.509L248.57 135.616Z" fill="#FF8800"/>
<path d="M269.097 172.045L255.011 174.5C254.696 174.564 254.37 174.495 254.104 174.309C253.839 174.124 253.655 173.837 253.594 173.512L253.127 162.994C253.096 162.833 253.097 162.667 253.129 162.506C253.161 162.345 253.223 162.192 253.311 162.056C253.4 161.92 253.514 161.804 253.647 161.713C253.779 161.623 253.927 161.56 254.083 161.529L268.35 158.498C268.506 158.466 268.666 158.467 268.821 158.5C268.977 158.533 269.125 158.597 269.257 158.689C269.388 158.781 269.501 158.898 269.589 159.035C269.676 159.172 269.737 159.326 269.767 159.487L270.054 170.58C270.084 170.741 270.083 170.907 270.051 171.067C270.02 171.228 269.958 171.381 269.869 171.517C269.78 171.653 269.666 171.77 269.534 171.86C269.401 171.951 269.253 172.014 269.097 172.045Z" fill="#FF8800"/>
<path d="M254.083 161.529C253.768 161.592 253.491 161.782 253.311 162.056C253.132 162.331 253.066 162.668 253.127 162.994L253.594 173.512C253.628 173.69 253.699 173.859 253.803 174.005C253.907 174.152 254.041 174.273 254.196 174.361C255.384 170.048 256.015 165.591 256.07 161.106L254.083 161.529Z" fill="#FF8800"/>
<path d="M188.664 249.027C192.992 249.027 196.5 245.4 196.5 240.927C196.5 236.453 192.992 232.827 188.664 232.827C184.337 232.827 180.828 236.453 180.828 240.927C180.828 245.4 184.337 249.027 188.664 249.027Z" fill="white"/>
<path d="M178.216 225.777C180.46 225.777 182.279 223.896 182.279 221.577C182.279 219.257 180.46 217.377 178.216 217.377C175.973 217.377 174.153 219.257 174.153 221.577C174.153 223.896 175.973 225.777 178.216 225.777Z" fill="white"/>
<path d="M204.794 231.777C208 231.777 210.599 229.091 210.599 225.777C210.599 222.463 208 219.777 204.794 219.777C201.589 219.777 198.99 222.463 198.99 225.777C198.99 229.091 201.589 231.777 204.794 231.777Z" fill="white"/>
<path d="M163.963 95.3996C169.112 95.3996 173.286 91.0848 173.286 85.7622C173.286 80.4396 169.112 76.1248 163.963 76.1248C158.814 76.1248 154.64 80.4396 154.64 85.7622C154.64 91.0848 158.814 95.3996 163.963 95.3996Z" fill="white"/>
<path d="M196.687 73.3903C199.008 73.3903 200.89 71.445 200.89 69.0455C200.89 66.6459 199.008 64.7007 196.687 64.7007C194.365 64.7007 192.483 66.6459 192.483 69.0455C192.483 71.445 194.365 73.3903 196.687 73.3903Z" fill="white"/>
<path d="M184.651 87.5709C188.36 87.5709 191.366 84.463 191.366 80.6293C191.366 76.7956 188.36 73.6877 184.651 73.6877C180.942 73.6877 177.936 76.7956 177.936 80.6293C177.936 84.463 180.942 87.5709 184.651 87.5709Z" fill="white"/>
<path d="M153.408 190.726L143.86 185.096L138.414 194.966L147.962 200.596L153.408 190.726Z" fill="#CACACA"/>
<path d="M189.856 188.183C195.853 183.508 200.375 177.1 202.849 169.768C205.323 162.437 205.639 154.511 203.756 146.994C201.873 139.477 197.876 132.706 192.271 127.537C186.665 122.368 179.703 119.034 172.264 117.955C164.825 116.876 157.244 118.102 150.479 121.477C143.714 124.852 138.07 130.225 134.259 136.917C130.448 143.608 128.642 151.317 129.069 159.069C129.496 166.822 132.138 174.269 136.659 180.469C139.662 184.587 143.42 188.053 147.718 190.669C152.017 193.286 156.772 195.001 161.712 195.717C166.652 196.434 171.68 196.137 176.509 194.844C181.338 193.552 185.873 191.288 189.856 188.183ZM142.572 175.867C138.93 170.875 136.801 164.879 136.456 158.636C136.111 152.394 137.564 146.185 140.632 140.797C143.7 135.408 148.245 131.081 153.692 128.362C159.139 125.644 165.244 124.657 171.234 125.525C177.224 126.393 182.831 129.078 187.345 133.24C191.859 137.402 195.077 142.855 196.593 148.908C198.11 154.961 197.855 161.343 195.862 167.246C193.87 173.15 190.228 178.31 185.398 182.074C178.922 187.12 170.773 189.3 162.742 188.136C154.711 186.972 147.456 182.559 142.572 175.867Z" fill="#455A64"/>
<path opacity="0.76" d="M166.988 188.447C183.878 188.447 197.57 174.294 197.57 156.835C197.57 139.376 183.878 125.222 166.988 125.222C150.099 125.222 136.407 139.376 136.407 156.835C136.407 174.294 150.099 188.447 166.988 188.447Z" fill="white"/>
<path d="M188.822 158.222C188.531 163.119 186.707 167.786 183.625 171.517C180.543 175.248 176.371 177.843 171.738 178.908C167.105 179.973 162.262 179.452 157.941 177.422C153.619 175.393 150.054 171.966 147.782 167.658" stroke="white" stroke-width="10" stroke-miterlimit="10"/>
<path d="M150.848 202.266L135.555 193.248C134.974 192.906 134.236 193.115 133.905 193.715L111.536 234.256C111.205 234.856 111.407 235.619 111.987 235.961L127.281 244.978C127.861 245.32 128.6 245.111 128.93 244.512L151.3 203.971C151.63 203.371 151.428 202.608 150.848 202.266Z" fill="#455A64"/>
<path d="M128.93 244.512L151.3 203.971C151.378 203.828 151.429 203.671 151.449 203.508C151.469 203.345 151.457 203.18 151.416 203.021C151.374 202.863 151.302 202.715 151.205 202.585C151.107 202.455 150.986 202.347 150.848 202.265L147.045 200.023C147.323 200.187 147.527 200.459 147.612 200.779C147.696 201.099 147.655 201.44 147.496 201.728L125.127 242.269C125.048 242.412 124.943 242.537 124.817 242.637C124.692 242.738 124.548 242.812 124.395 242.855C124.242 242.899 124.082 242.91 123.925 242.89C123.767 242.869 123.615 242.817 123.477 242.736L127.281 244.978C127.419 245.06 127.571 245.112 127.728 245.133C127.886 245.153 128.046 245.141 128.199 245.098C128.352 245.055 128.496 244.981 128.621 244.88C128.747 244.78 128.852 244.654 128.93 244.512Z" fill="#455A64"/>
<path d="M115.214 236.425L137.583 195.884C137.662 195.741 137.767 195.616 137.893 195.515C138.018 195.415 138.161 195.34 138.315 195.297C138.468 195.254 138.628 195.242 138.785 195.263C138.943 195.283 139.095 195.336 139.233 195.417L143.458 197.908L135.555 193.248C135.276 193.084 134.946 193.041 134.636 193.129C134.327 193.216 134.064 193.427 133.905 193.715L111.536 234.256C111.377 234.544 111.335 234.886 111.42 235.205C111.505 235.525 111.709 235.797 111.987 235.961L115.665 238.13C115.528 238.049 115.406 237.94 115.309 237.81C115.212 237.681 115.14 237.532 115.098 237.374C115.056 237.216 115.045 237.05 115.065 236.887C115.085 236.725 115.136 236.567 115.214 236.425Z" fill="#455A64"/>
<path d="M119.89 240.621L127.281 244.978H127.281L119.89 240.621Z" fill="white"/>
<path d="M111.91 232.074L130.557 243.068C130.835 243.232 131.039 243.504 131.124 243.824C131.208 244.144 131.167 244.485 131.008 244.773L129.228 247.999C128.181 249.896 126.448 251.286 124.411 251.862C122.373 252.438 120.197 252.154 118.362 251.072L111.454 246.999C110.545 246.463 109.747 245.748 109.106 244.893C108.465 244.039 107.993 243.062 107.717 242.019C107.441 240.976 107.366 239.887 107.497 238.814C107.628 237.742 107.963 236.706 108.481 235.767L110.261 232.541C110.42 232.253 110.683 232.042 110.992 231.955C111.301 231.867 111.632 231.91 111.91 232.074Z" fill="#CACACA"/>
<path d="M112.097 237.927L113.877 234.701C114.035 234.413 114.299 234.202 114.608 234.114C114.917 234.027 115.248 234.07 115.526 234.234L130.748 243.209C130.689 243.156 130.625 243.109 130.557 243.068L111.91 232.074C111.632 231.91 111.301 231.867 110.992 231.954C110.683 232.042 110.42 232.253 110.261 232.541L108.481 235.767C107.434 237.664 107.159 239.913 107.717 242.019C108.274 244.126 109.618 245.917 111.454 246.999L114.676 248.899C112.973 247.755 111.758 245.982 111.278 243.942C110.799 241.902 111.092 239.75 112.097 237.927Z" fill="#CACACA"/>
<path d="M129.228 247.999L131.008 244.773C131.167 244.485 131.208 244.144 131.124 243.824C131.039 243.504 130.835 243.232 130.557 243.068L126.736 240.816C127.014 240.981 127.217 241.252 127.301 241.572C127.385 241.891 127.343 242.231 127.185 242.519L125.405 245.745C124.358 247.642 122.625 249.031 120.587 249.607C118.55 250.184 116.374 249.9 114.539 248.818L111.447 246.995L111.454 246.999L118.362 251.072C119.271 251.608 120.272 251.953 121.31 252.089C122.348 252.224 123.402 252.147 124.411 251.862C125.42 251.577 126.364 251.089 127.191 250.426C128.017 249.763 128.71 248.938 129.228 247.999Z" fill="#CACACA"/>
</svg>
