<?xml version="1.0" encoding="utf-8"?>
<!-- Generator: Adobe Illustrator 25.0.0, SVG Export Plug-In . SVG Version: 6.00 Build 0)  -->
<svg version="1.1" id="Layer_1" xmlns="http://www.w3.org/2000/svg" xmlns:xlink="http://www.w3.org/1999/xlink" x="0px" y="0px"
	 viewBox="0 0 1280 720" style="enable-background:new 0 0 1280 720;" xml:space="preserve">
<style type="text/css">
	.st0{fill:#FFFFFF;}
	.st1{fill-rule:evenodd;clip-rule:evenodd;fill:#FFFFFF;}
	.st2{fill:#241C26;}
	.st3{fill:#FFB300;}
	.st4{fill:none;stroke:#FFB300;stroke-width:0.6808;stroke-linecap:round;stroke-miterlimit:10;}
	.st5{fill:none;stroke:#D89000;stroke-width:0.6808;stroke-linecap:round;stroke-miterlimit:10;}
	.st6{fill:none;stroke:#FFB300;stroke-width:1.4468;stroke-linecap:round;stroke-miterlimit:10;}
	.st7{fill:#CCCCCC;}
	.st8{font-family:'Cakecafe';}
	.st9{font-size:139.7122px;}
</style>
<path class="st0" d="M885.52,349.61c-0.16,0.44-0.45,0.83-0.8,1.15c-0.12,0.11-0.24,0.21-0.37,0.3c-0.25,0.18-0.53,0.34-0.82,0.46
	c-0.88,0.36-1.88,0.42-2.79,0.18c-0.13-0.03-0.25-0.07-0.38-0.11c-0.77-0.27-1.47-0.75-1.98-1.39c-0.3-0.37-0.53-0.79-0.68-1.24
	c-0.14-0.45-0.21-0.93-0.14-1.39c0-0.03,0.03-0.05,0.06-0.05c0.01,0,0.01,0,0.02,0.01l0.02,0.01c0.12,0.07,0.22,0.14,0.32,0.2
	l0.29,0.18c0.19,0.11,0.37,0.21,0.54,0.29c0.09,0.04,0.16,0.09,0.25,0.12c0.09,0.03,0.16,0.08,0.24,0.11
	c0.16,0.06,0.31,0.13,0.46,0.18c0.59,0.22,1.11,0.36,1.65,0.5c0.54,0.14,1.06,0.26,1.68,0.35c0.16,0.02,0.32,0.04,0.49,0.07
	c0.09,0.02,0.17,0.01,0.26,0.02c0.09,0.01,0.18,0.01,0.28,0.02c0.19,0.01,0.39,0.01,0.61,0.01l0.34-0.01
	c0.12-0.01,0.24-0.02,0.38-0.02l0.02,0c0.03,0,0.05,0.02,0.05,0.06C885.53,349.6,885.53,349.61,885.52,349.61z"/>
<g>
	<path d="M926.64,220.68L352.01,266.2c-11.82,0.94-18.75,12.7-12.87,21.86l105.63,164.52c2.55,3.96,7.07,6.55,12.16,6.96
		l309.85,24.66c15.23,11.52-21.99,44.54-42.73,78.48c15.76-1.61,31.09-6.04,45.01-13.09c35.21-17.83,64.71-34.9,78.74-58.94
		l23.14,1.84c8.23,0.65,15.8-4.47,17.46-11.82l54.98-242.98C945.53,228.29,937.2,219.85,926.64,220.68z"/>
	<path class="st0" d="M913.45,213.1l-574.66,45.2c-11.82,0.93-18.72,12.93-12.82,22.29l106.02,168.23c2.55,4.05,7.08,6.7,12.18,7.13
		l309.98,25.86c15.9,12.29,3.43,40.91-18.93,77.63c44.33-22.41,83.26-41.52,99.99-70.86l23.15,1.93
		c8.24,0.69,15.79-4.52,17.44-12.03l54.45-247.98C932.36,220.91,924.01,212.27,913.45,213.1z"/>
	<path d="M770.34,225.55c-246.48,22.41-433.83,34.55-433.83,34.55c-8.24,1.96-14.91,10.39-8.55,20.85
		c31.21,50.1,58.38,93.31,105.28,166.21c2.29,3.6,5.55,5.62,9.22,6.35c1.25,0.26,2.88,0.34,4.19,0.44
		c117.23,8.84,57.22,3.9,309.1,23.9c14.05,11.09,10.18,27.92,3.49,44.22c-5.21,12.74-13.29,26.72-20.49,38.58l-5.5-5.1
		c65.38-33.05,82.46-43.89,99.88-71.24c31.65,2.8,25.32,2.28,27.72,2.28c2.23,0.1,9.66-1.67,11.59-10.02l0.28-1.24
		c48.02-211.09,59.19-243.3,56.83-251.8c-1.08-3.36-3.12-5.85-6.01-7.76c-1.44-0.94-3.08-1.59-4.78-2.04
		C913.27,212.35,786.96,224.07,770.34,225.55z M913.41,212.58c3.85-0.2,7.36,0.47,10.6,2.54c3.07,2,5.24,4.64,6.39,8.16
		c1.68,5.9-50.56,254.71-52.28,258.74c-1.7,3.84-4.9,7.1-8.85,9.11c-6.99,3.58-10.21,2.36-34.53,0.46l3.83-1.93
		c-20.51,32.78-53.23,48.13-113.91,78.74c19.04-31.28,43.88-70.51,26.89-84.33l2.11,0.81c-1.77-0.15-305.76-26.52-312.14-27.96
		c-4.63-1-8.77-3.7-11.4-8.07c-53.25-86.08-105.79-168.37-105.79-168.37c-5.28-9.83,0.24-21.81,14.13-23.88
		c0.07-0.01,0.4-0.04,0.39-0.04C712.69,223.5,661.06,231.77,913.41,212.58z"/>
</g>
<path d="M843.75,205.12c-51.43,4.32-465.35,38.98-515.71,42.3c-0.52,0.03-0.23,0.01-0.23,0.01c-0.32,0.04-0.1,0.01-2.17,0.29
	c-0.99,0.14-0.53,0.02-1.51,0.31c-1.32,0.36-1.72,0.42-4.05,1.48c-6.85,3.55-11.32,10.94-10.69,19.18c0.24,3.93,1.67,6.34,2.41,8.01
	c0,0,36.92,64.87,59.85,107.07l-0.57,0.33c-5.03-7.98-2.56-4.03-15.61-25.02c-9.22-14.75-34.85-56.84-40.54-66.34
	c-6.9-11.5-16.36-22.8-8.49-37.97c3.93-7.42,11.08-12.82,21.1-13.84l0.88-0.08c61.73-5.15,472.35-33.44,515.28-36.38L843.75,205.12z
	"/>
<path d="M956.02,257.59c-19.59,122.44-26.56,166.07-37.67,201.46l-0.65-0.12c2.43-37.04,11.43-79.04,37.67-201.46L956.02,257.59z"/>
<path d="M845.95,448.23c-14.53,62.79-44.54,75.69-117.67,118.49c24.93-49.36,37.04-60.71,30.48-81.06c-0.78-2.41-1.5-4.29-1.8-4.94
	c-4.57-8.96-14.43-19.16-20.07-23.6l0.4-0.48c18.29,11.76,31.99,29.8,27.36,50.39c-1.12,5.03-3.06,9.77-5.14,14.36
	c-4.58,9.75-8.15,15.54-21.61,39.21l-4.2-3.5c68.72-37.26,95.92-51.34,111.61-109L845.95,448.23z"/>
<g>
	<g>
		<path class="st1" d="M760.69,397.16c-1.94,2.93-5.12,4.27-7.09,2.98c-2.02-1.3-2.08-4.74-0.13-7.72c1.94-2.93,5.12-4.27,7.09-2.97
			C762.57,390.79,762.63,394.23,760.69,397.16L760.69,397.16L760.69,397.16z"/>
		<g>
			<g>
				<g>
					<path class="st0" d="M849.89,290.69c0,0,13.05,18.82,1.77,43.36C851.66,334.05,871.2,311.26,849.89,290.69z"/>
				</g>
			</g>
			<g>
				<g>
					<path class="st2" d="M762.3,403.64c-1.12,0.43-2.2,1.07-2.99,1.93c-0.32,0.35-0.6,0.76-0.62,1.14c-0.01,0.1,0.04,0.23,0.1,0.31
						c0.1,0.13,0.27,0.22,0.48,0.3c1.4,0.51,3.08,0,3.54-1.51c0.18-0.59,0.15-1.28-0.18-1.81
						C762.53,403.86,762.43,403.74,762.3,403.64z"/>
					<path class="st2" d="M768.86,281.8c-4.37,1.15-20.66,12.47-24.87,16.09c-3.38,3.05-6.93,7.9-7.31,12.13
						c-0.61,6.71,4.22,9.13,9.73,10.17l0.35,0.55c-0.1-0.01-0.18-0.05-0.24-0.11c-1.76,8.25-3.29,16.76-4.06,25.21
						c-1.29,14.1-1.83,65.38,17.02,67.1c4.74,0.43,10.35-2.93,10.88-8.7c0.47-5.13-3.66-6.67-4.38-10.1
						c-1.39-6.07,0.06-14.86,0.26-21.31c10.21-1.4,20.42-2.79,30.81-4.69c24.41-3.98,66.55-19.53,69.35-50.17
						C871,267.58,795.37,276.07,768.86,281.8z"/>
					<path class="st2" d="M880.2,326.86c4.62,0.42,7.26,2.6,7.19,7.64c-0.08,5.16-3.15,13.29-3.48,16.88
						c-0.67,7.31,0.97,14.83,0.42,20.85c-0.32,3.46-2.62,6.1-5.96,5.79c-10.51-0.96-11.5-18.5-10.68-27.48
						C868.32,343.74,872.13,326.12,880.2,326.86z M885.28,322.28c-5.26-0.48-10.68-4.85-10.19-10.24c0.44-4.87,5.17-9.87,10.42-9.39
						c6.16,0.56,9.52,6.17,9.03,11.55C894.09,319.2,890.79,322.78,885.28,322.28z"/>
				</g>
				<path class="st0" d="M757.56,405.18c-2.65-0.24-5.39-2.45-5.14-5.16c0.22-2.46,2.61-4.98,5.26-4.74c3.1,0.28,4.8,3.11,4.55,5.83
					C762.01,403.63,760.34,405.43,757.56,405.18z"/>
				<g>
					<g>
						<path class="st0" d="M760.17,405.62c-5.23,1.27-10.11-2.82-7.71-8.23c2.22-5.32,9.46-4.44,11.25,0.74
							C764.99,401.22,763.64,404.95,760.17,405.62L760.17,405.62z M760.17,405.62c3.44-0.73,4.71-4.39,3.31-7.4
							c-1.84-4.7-8.47-5.55-10.63-0.65C750.32,402.73,755.08,406.82,760.17,405.62L760.17,405.62z"/>
					</g>
				</g>
				<g>
					<path class="st0" d="M754.75,389.12c-11.42,10.37-7.11-30.03-6.35-34.61c0.13-0.94,0.25-2.06,0.5-2.98
						c1.16-2.9,4.06-4.55,6.57-6.09c1.74-0.99,3.54-1.87,5.35-2.7c10.92-4.87,22.38-8.41,33.56-12.57c3.73-1.38,7.44-2.8,11.08-4.4
						c4.37-2.09,9.25-3.96,12.26-7.85c1.33-2.21,2.43-6-1-6.85c-3.75-1.01-7.87-0.54-11.75-0.53c-7.94,0.23-16.06,0.14-23.84-1.98
						c-4.36-1.17-8.58-3.01-12.34-5.54c-4.3-3.19,4.94-5.16,7-5.74c11.71-2.66,23.6-3.92,35.5-5.17c9.77-0.99,20.69-1.17,29.15,4.58
						c9.66,6.6,8.07,18.48,1.8,26.92c-9.6,12.98-24.71,20.6-39.85,25.19c-11.41,3.53-23.21,5.77-34.31,10.23
						c-3.23,1.47-8.58,2.95-8.4,7.31c-0.24-4.35,5.14-5.93,8.35-7.42c3.67-1.55,7.46-2.8,11.27-3.96
						c18.89-5.54,39.19-9.61,54.37-23.04c7.14-6.24,14.36-15.15,12.7-25.2c-3.55-14.78-22.7-15.16-35-13.74
						c-11.83,1.28-23.76,2.6-35.35,5.27c-2.35,0.62-4.79,1.14-6.81,2.44c-0.35,0.25-0.63,0.59-0.58,0.77
						c0.02,0.46,1.17,1.05,1.93,1.57c3.34,2.08,7,3.61,10.81,4.65c7.63,2.1,15.65,2.23,23.58,2.03c6.3,0.04,19.25-1.82,13.4,8.63
						c-3.12,4.05-8.17,5.97-12.61,8.08c-3.66,1.59-7.39,3-11.13,4.37c-11.2,4.12-22.65,7.61-33.57,12.44
						c-3.55,1.66-7.24,3.37-10.1,6.09c-0.69,0.69-1.29,1.47-1.61,2.35c-0.28,0.84-0.34,2.03-0.51,2.9
						C747.99,359.31,743.34,399.28,754.75,389.12L754.75,389.12z"/>
				</g>
			</g>
			<path class="st0" d="M757.07,388.47c-10.06,9.49-8.15-22.28-5.79-36.92c1.88-11.65,64.13-23.21,69.5-34.79
				c7.06-15.65-62.74,14.01-60.31-12.57c0.76-8.36,46.97-12.99,56.37-12.59c39.23,1.66,44.24,26.73,8.31,47.71
				c-15.95,9.32-34.5,11.64-51.24,17.64c-0.04,0.01-0.09,0.04-0.13,0.05c-5.88,2.35-12.23,4.35-11.77,8.7"/>
			<g>
				<path class="st0" d="M851.06,315.49c3.38-10.57-1.16-19.84-11.83-23.16c0,0,0.16-0.71,0.16-0.71
					C853.76,293.79,860.86,302.67,851.06,315.49L851.06,315.49z M851.06,315.49c8.89-12.96,2.33-20.92-11.76-23.14
					c0,0,0.16-0.71,0.16-0.71C850.35,295.09,855.1,304.8,851.06,315.49L851.06,315.49z"/>
			</g>
		</g>
	</g>
	<g>
		<polygon class="st3" points="882.47,330.65 884.24,329.06 883.53,327.52 880.63,326.93 879.37,328.07 880.37,330.22 		"/>
		<polygon class="st3" points="882.39,331.09 880.23,348.6 877.21,351.38 875.35,347.76 880.3,330.66 		"/>
	</g>
	<g>
		<path class="st4" d="M884.84,321.77c4.35,0.61,8.33-2.17,8.89-6.2l0.06-0.43"/>
		<path class="st2" d="M885.31,322.63l-1.16-0.16c-0.33-0.05-0.56-0.35-0.51-0.68l0.05-0.36c0.05-0.33,0.35-0.56,0.68-0.51
			l1.16,0.16c0.33,0.05,0.56,0.35,0.51,0.68l-0.05,0.36C885.94,322.44,885.64,322.67,885.31,322.63z"/>
	</g>
	<g>
		<g>
			<path class="st5" d="M894.13,313.25l0.21-1.52c0.59-4.22-2.93-8.21-7.86-8.89c-4.93-0.69-9.4,2.18-9.99,6.4l-0.26,1.83"/>
			<path class="st6" d="M878.72,305.07c1.89-1.74,4.74-2.65,7.76-2.23c3.02,0.42,5.51,2.08,6.85,4.27"/>
		</g>
		<g>
			<path class="st7" d="M893.05,316.74L893.05,316.74c-0.72-0.1-1.25-0.52-1.2-0.94l0.47-3.38c0.06-0.42,0.69-0.68,1.41-0.58l0,0
				c0.72,0.1,1.25,0.52,1.2,0.94l-0.47,3.38C894.4,316.59,893.77,316.84,893.05,316.74z"/>
			<path class="st3" d="M893.44,317.26l-0.5-0.07c-0.46-0.06-0.78-0.49-0.72-0.95l0.58-4.14c0.06-0.46,0.49-0.78,0.95-0.72l0.5,0.07
				c0.46,0.06,0.78,0.49,0.72,0.95l-0.58,4.14C894.33,317.01,893.9,317.33,893.44,317.26z"/>
			
				<rect x="893.01" y="311.32" transform="matrix(0.9904 0.1383 -0.1383 0.9904 52.0519 -120.5125)" class="st0" width="0.19" height="5.87"/>
		</g>
		<g>
			<path class="st7" d="M876.35,314.41L876.35,314.41c0.72,0.1,1.35-0.16,1.41-0.58l0.47-3.38c0.06-0.42-0.48-0.84-1.2-0.94l0,0
				c-0.72-0.1-1.35,0.16-1.41,0.58l-0.47,3.38C875.1,313.89,875.63,314.31,876.35,314.41z"/>
			<path class="st3" d="M876.33,314.87l-0.5-0.07c-0.46-0.06-0.78-0.49-0.72-0.95l0.58-4.14c0.06-0.46,0.49-0.78,0.95-0.72l0.5,0.07
				c0.46,0.06,0.78,0.49,0.72,0.95l-0.58,4.14C877.22,314.62,876.79,314.94,876.33,314.87z"/>
			
				<rect x="876.89" y="309.07" transform="matrix(0.9904 0.1383 -0.1383 0.9904 51.5856 -118.3048)" class="st0" width="0.19" height="5.87"/>
		</g>
	</g>
	<path class="st0" d="M888.5,316.19c-0.14,0.45-0.41,0.85-0.74,1.19c-0.11,0.12-0.23,0.22-0.36,0.32c-0.25,0.2-0.52,0.36-0.8,0.5
		c-0.86,0.41-1.86,0.51-2.78,0.32c-0.13-0.03-0.26-0.06-0.38-0.1c-0.78-0.23-1.51-0.68-2.05-1.29c-0.32-0.36-0.57-0.77-0.74-1.21
		c-0.17-0.44-0.26-0.92-0.21-1.38c0-0.03,0.03-0.05,0.06-0.05c0.01,0,0.01,0,0.02,0.01l0.02,0.01c0.12,0.06,0.22,0.13,0.33,0.19
		l0.3,0.16c0.2,0.1,0.38,0.19,0.55,0.26c0.09,0.04,0.17,0.08,0.26,0.11c0.09,0.03,0.16,0.07,0.25,0.09
		c0.16,0.06,0.32,0.11,0.47,0.16c0.6,0.19,1.13,0.31,1.67,0.42c0.54,0.11,1.07,0.2,1.7,0.27c0.16,0.02,0.32,0.03,0.49,0.04
		c0.09,0.01,0.17,0,0.26,0.01c0.09,0.01,0.18,0,0.28,0c0.19,0,0.39-0.01,0.61-0.02l0.34-0.03c0.12-0.01,0.24-0.03,0.37-0.04l0.02,0
		c0.03,0,0.06,0.02,0.06,0.05C888.51,316.18,888.51,316.19,888.5,316.19z"/>
</g>
<g>
	<g>
		<text transform="matrix(0.9993 0.0374 -0.0374 0.9993 380.4161 444.9081)" class="st2 st8 st9">Track </text>
	</g>
	<g>
		<text transform="matrix(0.9993 0.0374 -0.0374 0.9993 377.4161 440.9081)" class="st3 st8 st9">Track </text>
	</g>
</g>
</svg>
