<?xml version="1.0" encoding="utf-8"?>
<!-- Generator: Adobe Illustrator 25.0.0, SVG Export Plug-In . SVG Version: 6.00 Build 0)  -->
<svg version="1.1" id="Layer_1" xmlns="http://www.w3.org/2000/svg" xmlns:xlink="http://www.w3.org/1999/xlink" x="0px" y="0px"
	 viewBox="0 0 1280 720" style="enable-background:new 0 0 1280 720;" xml:space="preserve">
<style type="text/css">
	.st0{fill:#FFFFFF;}
	.st1{fill-rule:evenodd;clip-rule:evenodd;fill:#FFFFFF;}
	.st2{fill:#241C26;}
	.st3{fill:#FFB300;}
	.st4{fill:none;stroke:#FFB300;stroke-width:0.6808;stroke-linecap:round;stroke-miterlimit:10;}
	.st5{fill:none;stroke:#D89000;stroke-width:0.6808;stroke-linecap:round;stroke-miterlimit:10;}
	.st6{fill:none;stroke:#FFB300;stroke-width:1.4468;stroke-linecap:round;stroke-miterlimit:10;}
	.st7{fill:#CCCCCC;}
	.st8{enable-background:new    ;}
</style>
<path class="st0" d="M885.5,349.6c-0.2,0.4-0.5,0.8-0.8,1.1c-0.1,0.1-0.2,0.2-0.4,0.3c-0.2,0.2-0.5,0.3-0.8,0.5
	c-0.9,0.4-1.9,0.4-2.8,0.2c-0.1,0-0.2-0.1-0.4-0.1c-0.8-0.3-1.5-0.8-2-1.4c-0.3-0.4-0.5-0.8-0.7-1.2c-0.1-0.5-0.2-0.9-0.1-1.4
	c0,0,0,0,0.1,0c0,0,0,0,0,0l0,0c0.1,0.1,0.2,0.1,0.3,0.2l0.3,0.2c0.2,0.1,0.4,0.2,0.5,0.3c0.1,0,0.2,0.1,0.2,0.1s0.2,0.1,0.2,0.1
	c0.2,0.1,0.3,0.1,0.5,0.2c0.6,0.2,1.1,0.4,1.7,0.5c0.5,0.1,1.1,0.3,1.7,0.4c0.2,0,0.3,0,0.5,0.1c0.1,0,0.2,0,0.3,0
	c0.1,0,0.2,0,0.3,0c0.2,0,0.4,0,0.6,0l0.3,0C885.2,349.6,885.3,349.6,885.5,349.6L885.5,349.6C885.5,349.6,885.5,349.6,885.5,349.6
	C885.5,349.6,885.5,349.6,885.5,349.6z"/>
<g>
	<path d="M926.6,220.7L352,266.2c-11.8,0.9-18.8,12.7-12.9,21.9l105.6,164.5c2.5,4,7.1,6.5,12.2,7l309.9,24.7
		c15.2,11.5-22,44.5-42.7,78.5c15.8-1.6,31.1-6,45-13.1c35.2-17.8,64.7-34.9,78.7-58.9l23.1,1.8c8.2,0.6,15.8-4.5,17.5-11.8l55-243
		C945.5,228.3,937.2,219.9,926.6,220.7z"/>
	<path class="st0" d="M913.5,213.1l-574.7,45.2c-11.8,0.9-18.7,12.9-12.8,22.3l106,168.2c2.5,4,7.1,6.7,12.2,7.1l310,25.9
		c15.9,12.3,3.4,40.9-18.9,77.6c44.3-22.4,83.3-41.5,100-70.9l23.2,1.9c8.2,0.7,15.8-4.5,17.4-12l54.5-248
		C932.4,220.9,924,212.3,913.5,213.1z"/>
	<path d="M770.3,225.6c-246.5,22.4-433.8,34.6-433.8,34.6c-8.2,2-14.9,10.4-8.5,20.9c31.2,50.1,58.4,93.3,105.3,166.2
		c2.3,3.6,5.5,5.6,9.2,6.4c1.2,0.3,2.9,0.3,4.2,0.4c117.2,8.8,57.2,3.9,309.1,23.9c14,11.1,10.2,27.9,3.5,44.2
		c-5.2,12.7-13.3,26.7-20.5,38.6l-5.5-5.1c65.4-33,82.5-43.9,99.9-71.2c31.7,2.8,25.3,2.3,27.7,2.3c2.2,0.1,9.7-1.7,11.6-10l0.3-1.2
		c48-211.1,59.2-243.3,56.8-251.8c-1.1-3.4-3.1-5.9-6-7.8c-1.4-0.9-3.1-1.6-4.8-2C913.3,212.4,787,224.1,770.3,225.6z M913.4,212.6
		c3.8-0.2,7.4,0.5,10.6,2.5c3.1,2,5.2,4.6,6.4,8.2c1.7,5.9-50.6,254.7-52.3,258.7c-1.7,3.8-4.9,7.1-8.8,9.1
		c-7,3.6-10.2,2.4-34.5,0.5l3.8-1.9c-20.5,32.8-53.2,48.1-113.9,78.7c19-31.3,43.9-70.5,26.9-84.3l2.1,0.8
		c-1.8-0.1-305.8-26.5-312.1-28c-4.6-1-8.8-3.7-11.4-8.1c-53.2-86.1-105.8-168.4-105.8-168.4c-5.3-9.8,0.2-21.8,14.1-23.9
		c0.1,0,0.4,0,0.4,0C712.7,223.5,661.1,231.8,913.4,212.6z"/>
</g>
<path d="M843.8,205.1c-51.4,4.3-465.4,39-515.7,42.3c-0.5,0-0.2,0-0.2,0c-0.3,0-0.1,0-2.2,0.3c-1,0.1-0.5,0-1.5,0.3
	c-1.3,0.4-1.7,0.4-4,1.5c-6.9,3.6-11.3,10.9-10.7,19.2c0.2,3.9,1.7,6.3,2.4,8c0,0,36.9,64.9,59.9,107.1l-0.6,0.3c-5-8-2.6-4-15.6-25
	c-9.2-14.8-34.9-56.8-40.5-66.3c-6.9-11.5-16.4-22.8-8.5-38c3.9-7.4,11.1-12.8,21.1-13.8l0.9-0.1c61.7-5.1,472.4-33.4,515.3-36.4
	L843.8,205.1z"/>
<path d="M956,257.6C936.4,380,929.5,423.7,918.4,459l-0.7-0.1c2.4-37,11.4-79,37.7-201.5L956,257.6z"/>
<path d="M846,448.2c-14.5,62.8-44.5,75.7-117.7,118.5c24.9-49.4,37-60.7,30.5-81.1c-0.8-2.4-1.5-4.3-1.8-4.9
	c-4.6-9-14.4-19.2-20.1-23.6l0.4-0.5c18.3,11.8,32,29.8,27.4,50.4c-1.1,5-3.1,9.8-5.1,14.4c-4.6,9.8-8.2,15.5-21.6,39.2l-4.2-3.5
	c68.7-37.3,95.9-51.3,111.6-109L846,448.2z"/>
<g>
	<g>
		<path class="st1" d="M760.7,397.2c-1.9,2.9-5.1,4.3-7.1,3c-2-1.3-2.1-4.7-0.1-7.7c1.9-2.9,5.1-4.3,7.1-3
			C762.6,390.8,762.6,394.2,760.7,397.2L760.7,397.2L760.7,397.2z"/>
		<g>
			<g>
				<g>
					<path class="st0" d="M849.9,290.7c0,0,13,18.8,1.8,43.4C851.7,334,871.2,311.3,849.9,290.7z"/>
				</g>
			</g>
			<g>
				<g>
					<path class="st2" d="M762.3,403.6c-1.1,0.4-2.2,1.1-3,1.9c-0.3,0.4-0.6,0.8-0.6,1.1c0,0.1,0,0.2,0.1,0.3
						c0.1,0.1,0.3,0.2,0.5,0.3c1.4,0.5,3.1,0,3.5-1.5c0.2-0.6,0.2-1.3-0.2-1.8C762.5,403.9,762.4,403.7,762.3,403.6z"/>
					<path class="st2" d="M768.9,281.8c-4.4,1.1-20.7,12.5-24.9,16.1c-3.4,3-6.9,7.9-7.3,12.1c-0.6,6.7,4.2,9.1,9.7,10.2l0.3,0.5
						c-0.1,0-0.2,0-0.2-0.1c-1.8,8.2-3.3,16.8-4.1,25.2c-1.3,14.1-1.8,65.4,17,67.1c4.7,0.4,10.3-2.9,10.9-8.7
						c0.5-5.1-3.7-6.7-4.4-10.1c-1.4-6.1,0.1-14.9,0.3-21.3c10.2-1.4,20.4-2.8,30.8-4.7c24.4-4,66.5-19.5,69.3-50.2
						C871,267.6,795.4,276.1,768.9,281.8z"/>
					<path class="st2" d="M880.2,326.9c4.6,0.4,7.3,2.6,7.2,7.6c-0.1,5.2-3.2,13.3-3.5,16.9c-0.7,7.3,1,14.8,0.4,20.9
						c-0.3,3.5-2.6,6.1-6,5.8c-10.5-1-11.5-18.5-10.7-27.5C868.3,343.7,872.1,326.1,880.2,326.9z M885.3,322.3
						c-5.3-0.5-10.7-4.9-10.2-10.2c0.4-4.9,5.2-9.9,10.4-9.4c6.2,0.6,9.5,6.2,9,11.5C894.1,319.2,890.8,322.8,885.3,322.3z"/>
				</g>
				<path class="st0" d="M757.6,405.2c-2.7-0.2-5.4-2.5-5.1-5.2c0.2-2.5,2.6-5,5.3-4.7c3.1,0.3,4.8,3.1,4.5,5.8
					C762,403.6,760.3,405.4,757.6,405.2z"/>
				<g>
					<g>
						<path class="st0" d="M760.2,405.6c-5.2,1.3-10.1-2.8-7.7-8.2c2.2-5.3,9.5-4.4,11.2,0.7C765,401.2,763.6,405,760.2,405.6
							L760.2,405.6z M760.2,405.6c3.4-0.7,4.7-4.4,3.3-7.4c-1.8-4.7-8.5-5.5-10.6-0.6C750.3,402.7,755.1,406.8,760.2,405.6
							L760.2,405.6z"/>
					</g>
				</g>
				<g>
					<path class="st0" d="M754.8,389.1c-11.4,10.4-7.1-30-6.3-34.6c0.1-0.9,0.2-2.1,0.5-3c1.2-2.9,4.1-4.5,6.6-6.1
						c1.7-1,3.5-1.9,5.3-2.7c10.9-4.9,22.4-8.4,33.6-12.6c3.7-1.4,7.4-2.8,11.1-4.4c4.4-2.1,9.2-4,12.3-7.9c1.3-2.2,2.4-6-1-6.9
						c-3.8-1-7.9-0.5-11.8-0.5c-7.9,0.2-16.1,0.1-23.8-2c-4.4-1.2-8.6-3-12.3-5.5c-4.3-3.2,4.9-5.2,7-5.7
						c11.7-2.7,23.6-3.9,35.5-5.2c9.8-1,20.7-1.2,29.2,4.6c9.7,6.6,8.1,18.5,1.8,26.9c-9.6,13-24.7,20.6-39.8,25.2
						c-11.4,3.5-23.2,5.8-34.3,10.2c-3.2,1.5-8.6,3-8.4,7.3c-0.2-4.4,5.1-5.9,8.3-7.4c3.7-1.5,7.5-2.8,11.3-4
						c18.9-5.5,39.2-9.6,54.4-23c7.1-6.2,14.4-15.1,12.7-25.2c-3.5-14.8-22.7-15.2-35-13.7c-11.8,1.3-23.8,2.6-35.3,5.3
						c-2.3,0.6-4.8,1.1-6.8,2.4c-0.3,0.2-0.6,0.6-0.6,0.8c0,0.5,1.2,1,1.9,1.6c3.3,2.1,7,3.6,10.8,4.6c7.6,2.1,15.7,2.2,23.6,2
						c6.3,0,19.2-1.8,13.4,8.6c-3.1,4-8.2,6-12.6,8.1c-3.7,1.6-7.4,3-11.1,4.4c-11.2,4.1-22.7,7.6-33.6,12.4
						c-3.5,1.7-7.2,3.4-10.1,6.1c-0.7,0.7-1.3,1.5-1.6,2.4c-0.3,0.8-0.3,2-0.5,2.9C748,359.3,743.3,399.3,754.8,389.1L754.8,389.1z"
						/>
				</g>
			</g>
			<path class="st0" d="M757.1,388.5c-10.1,9.5-8.2-22.3-5.8-36.9c1.9-11.6,64.1-23.2,69.5-34.8c7.1-15.6-62.7,14-60.3-12.6
				c0.8-8.4,47-13,56.4-12.6c39.2,1.7,44.2,26.7,8.3,47.7c-16,9.3-34.5,11.6-51.2,17.6c0,0-0.1,0-0.1,0c-5.9,2.4-12.2,4.4-11.8,8.7"
				/>
			<g>
				<path class="st0" d="M851.1,315.5c3.4-10.6-1.2-19.8-11.8-23.2l0.2-0.7C853.8,293.8,860.9,302.7,851.1,315.5L851.1,315.5z
					 M851.1,315.5c8.9-13,2.3-20.9-11.8-23.1l0.2-0.7C850.3,295.1,855.1,304.8,851.1,315.5L851.1,315.5z"/>
			</g>
		</g>
	</g>
	<g>
		<polygon class="st3" points="882.5,330.6 884.2,329.1 883.5,327.5 880.6,326.9 879.4,328.1 880.4,330.2 		"/>
		<polygon class="st3" points="882.4,331.1 880.2,348.6 877.2,351.4 875.3,347.8 880.3,330.7 		"/>
	</g>
	<g>
		<path class="st4" d="M884.8,321.8c4.3,0.6,8.3-2.2,8.9-6.2l0.1-0.4"/>
		<path class="st2" d="M885.3,322.6l-1.2-0.2c-0.3,0-0.6-0.4-0.5-0.7l0-0.4c0-0.3,0.3-0.6,0.7-0.5l1.2,0.2c0.3,0,0.6,0.4,0.5,0.7
			l0,0.4C885.9,322.4,885.6,322.7,885.3,322.6z"/>
	</g>
	<g>
		<g>
			<path class="st5" d="M894.1,313.2l0.2-1.5c0.6-4.2-2.9-8.2-7.9-8.9c-4.9-0.7-9.4,2.2-10,6.4l-0.3,1.8"/>
			<path class="st6" d="M878.7,305.1c1.9-1.7,4.7-2.6,7.8-2.2c3,0.4,5.5,2.1,6.8,4.3"/>
		</g>
		<g>
			<path class="st7" d="M893,316.7L893,316.7c-0.7-0.1-1.2-0.5-1.2-0.9l0.5-3.4c0.1-0.4,0.7-0.7,1.4-0.6l0,0
				c0.7,0.1,1.2,0.5,1.2,0.9l-0.5,3.4C894.4,316.6,893.8,316.8,893,316.7z"/>
			<path class="st3" d="M893.4,317.3l-0.5-0.1c-0.5-0.1-0.8-0.5-0.7-1l0.6-4.1c0.1-0.5,0.5-0.8,1-0.7l0.5,0.1c0.5,0.1,0.8,0.5,0.7,1
				l-0.6,4.1C894.3,317,893.9,317.3,893.4,317.3z"/>
			
				<rect x="890.2" y="314.1" transform="matrix(0.1383 -0.9904 0.9904 0.1383 458.3817 1155.322)" class="st0" width="5.9" height="0.2"/>
		</g>
		<g>
			<path class="st7" d="M876.3,314.4L876.3,314.4c0.7,0.1,1.3-0.2,1.4-0.6l0.5-3.4c0.1-0.4-0.5-0.8-1.2-0.9l0,0
				c-0.7-0.1-1.3,0.2-1.4,0.6l-0.5,3.4C875.1,313.9,875.6,314.3,876.3,314.4z"/>
			<path class="st3" d="M876.3,314.9l-0.5-0.1c-0.5-0.1-0.8-0.5-0.7-1l0.6-4.1c0.1-0.5,0.5-0.8,1-0.7l0.5,0.1c0.5,0.1,0.8,0.5,0.7,1
				l-0.6,4.1C877.2,314.6,876.8,314.9,876.3,314.9z"/>
			
				<rect x="874.1" y="311.9" transform="matrix(0.1383 -0.9904 0.9904 0.1383 446.7192 1137.4177)" class="st0" width="5.9" height="0.2"/>
		</g>
	</g>
	<path class="st0" d="M888.5,316.2c-0.1,0.5-0.4,0.9-0.7,1.2c-0.1,0.1-0.2,0.2-0.4,0.3c-0.2,0.2-0.5,0.4-0.8,0.5
		c-0.9,0.4-1.9,0.5-2.8,0.3c-0.1,0-0.3-0.1-0.4-0.1c-0.8-0.2-1.5-0.7-2-1.3c-0.3-0.4-0.6-0.8-0.7-1.2s-0.3-0.9-0.2-1.4
		c0,0,0,0,0.1,0c0,0,0,0,0,0l0,0c0.1,0.1,0.2,0.1,0.3,0.2l0.3,0.2c0.2,0.1,0.4,0.2,0.5,0.3c0.1,0,0.2,0.1,0.3,0.1s0.2,0.1,0.2,0.1
		c0.2,0.1,0.3,0.1,0.5,0.2c0.6,0.2,1.1,0.3,1.7,0.4c0.5,0.1,1.1,0.2,1.7,0.3c0.2,0,0.3,0,0.5,0c0.1,0,0.2,0,0.3,0s0.2,0,0.3,0
		c0.2,0,0.4,0,0.6,0l0.3,0C888.2,316.2,888.3,316.1,888.5,316.2L888.5,316.2C888.5,316.1,888.5,316.2,888.5,316.2
		C888.5,316.2,888.5,316.2,888.5,316.2z"/>
</g>
<g class="st8">
	<path class="st2" d="M470.4,318.5c-0.6,3.7-1.3,7.9-1.9,12.6c-0.7,4.7-1.3,9.6-2,14.9c-0.6,5.2-1.2,10.6-1.8,16
		c-0.6,5.4-1.1,10.7-1.6,15.9c-0.5,5.2-0.9,10.1-1.3,14.8c-0.3,4.7-0.5,8.9-0.7,12.6c-0.2,5.1,0.1,9,0.9,11.7
		c0.8,2.7,1.7,4.8,2.6,6.3c1,1.5,1.9,2.8,2.7,3.8c0.8,1,1.2,2.4,1.2,4.2c-0.1,2.3-1,4.3-2.8,6c-1.8,1.7-3.8,2.4-6.2,2.4
		c-3.8-0.1-7-1.7-9.6-4.7c-2.6-3-4.7-6.9-6.3-11.8c-1.6-4.9-2.8-10.5-3.6-16.8c-0.8-6.3-1.3-12.9-1.4-19.8
		c-0.2-6.9-0.1-13.7,0.2-20.5c0.3-6.8,0.7-13.2,1.3-19.2c0.5-5.9,1.2-11.2,1.8-15.7c0.7-4.5,1.3-7.9,1.8-10.1
		c-7,0.4-14,0.5-21.1,0.3c-7-0.2-14-0.4-21-0.6c-1.7-0.1-3.3-0.3-4.9-0.8c-1.6-0.5-3-1.2-4.2-2.2c-1.2-1-2.2-2.2-2.9-3.6
		c-0.7-1.4-1.1-3.1-1-4.9c0.1-2.2,0.6-4.1,1.5-5.6c0.9-1.5,2.5-2.7,4.8-3.7c0.9-0.4,3-0.9,6.2-1.5c3.2-0.6,7.2-1.2,11.9-2
		c4.7-0.8,10-1.5,15.9-2.3c5.9-0.8,11.9-1.5,18.1-2.3c6.2-0.7,12.3-1.4,18.3-2.1c6-0.7,11.7-1.2,16.9-1.7c5.2-0.5,9.8-0.8,13.7-1.1
		c3.9-0.3,6.7-0.4,8.6-0.3c2,0.1,3.8,0.3,5.6,0.7c1.8,0.4,3.3,1,4.6,1.9c1.3,0.9,2.4,2.1,3.1,3.6c0.8,1.5,1.1,3.4,1,5.8
		c-0.1,2.6-1.1,4.9-3,6.7c-1.9,1.9-4.3,3.5-7.3,4.8c-3,1.3-6.3,2.4-9.9,3.2c-3.6,0.8-7.2,1.6-10.8,2.2c-3.6,0.6-6.9,1.1-10.1,1.6
		C474.8,317.6,472.3,318,470.4,318.5z"/>
	<path class="st2" d="M501.4,338.3c1.9-0.8,3.8-1.5,5.6-2.2c1.8-0.7,3.8-1,6-0.9c1.1,0,2.3,0.2,3.7,0.6c1.3,0.3,2.6,0.8,3.7,1.5
		c1.1,0.7,2.1,1.6,2.8,2.6c0.8,1.1,1.1,2.3,1.1,3.7c-0.1,2.3-0.8,4-2.2,5.1c-1.4,1.1-3.2,1.6-5.4,1.5c-3-0.1-5.6,0.5-7.8,1.9
		c-2.2,1.4-4.2,3.2-5.7,5.5c-1.6,2.3-2.8,4.8-3.6,7.6c-0.8,2.8-1.3,5.5-1.4,8.1c-0.1,2.3,0,4.6,0.3,6.7c0.3,2.2,0.4,4.4,0.3,6.7
		c-0.1,2.1-0.8,4-2.2,5.4c-1.4,1.5-3.2,2.2-5.5,2.1c-2.5-0.1-4.4-1.6-5.8-4.4c-1.3-2.8-2.3-6.2-2.9-10c-0.6-3.8-0.9-7.5-1-11.2
		c-0.1-3.7,0-6.5,0-8.3c0.1-2,0.2-4.7,0.5-8.4s0.8-7.2,1.7-10.8c0.8-3.6,2.1-6.6,3.8-9.2c1.7-2.6,4-3.8,6.9-3.7c1.3,0,2.4,0.4,3.3,1
		c0.9,0.6,1.6,1.4,2.2,2.4c0.6,1,1,2,1.2,3.1C501.2,336,501.4,337.2,501.4,338.3z"/>
	<path class="st2" d="M569.8,335.4c1.1-1.2,2.2-2.3,3.4-3.3c1.2-1,2.6-1.5,4.3-1.4c2,0.1,3.6,0.9,4.7,2.3c1.1,1.5,1.6,3.3,1.5,5.3
		c-0.1,3.5-0.8,7.1-1.9,10.8c-1.1,3.6-1.7,7.4-1.9,11.3c-0.2,4.7,0.1,8,0.8,10c0.7,2,1.5,3.5,2.5,4.5c0.9,1,1.8,1.8,2.6,2.4
		c0.8,0.6,1.1,1.8,1.1,3.6c-0.1,2.4-0.9,4.2-2.4,5.4c-1.5,1.2-3.4,1.8-5.5,1.7c-2-0.1-3.6-0.4-5-1.1c-1.4-0.7-2.6-1.5-3.7-2.7
		c-1.1-1.1-2.1-2.4-3-3.7c-0.9-1.4-1.9-2.8-2.8-4.2c-0.8,1.8-1.8,3.8-3.1,5.9c-1.2,2.1-2.7,4-4.3,5.8c-1.6,1.8-3.4,3.2-5.4,4.3
		c-2,1.1-4.1,1.7-6.4,1.6c-3.2-0.1-5.8-1-7.9-2.7c-2.1-1.7-3.7-3.8-5-6.3c-1.3-2.5-2.1-5.2-2.6-8.2c-0.4-2.9-0.6-5.7-0.5-8.3
		c0.2-4.2,0.9-8.4,2.2-12.7c1.3-4.3,3.2-8.1,5.7-11.4c2.5-3.3,5.6-6,9.3-8.1c3.7-2,7.9-3,12.6-2.8c1.9,0.1,3.6,0.4,5.3,0.9
		C566.2,334.7,567.9,335.1,569.8,335.4z M562.3,350.9c-1.4-0.5-2.5-0.8-3.3-0.8c-2.4-0.1-4.5,0.6-6.1,2.1c-1.6,1.5-3,3.3-4,5.5
		c-1,2.2-1.8,4.5-2.3,7c-0.5,2.5-0.8,4.6-0.9,6.3c-0.1,2.8,0.1,4.8,0.5,6c0.4,1.2,1,1.8,1.8,1.7c0.7-0.1,1.6-0.8,2.6-2.1
		c1-1.3,2-2.9,3-4.9c1.8-3.3,3.3-6.7,4.5-10.2C559.3,358,560.7,354.5,562.3,350.9z"/>
	<path class="st2" d="M634.8,412.8c-6.1-0.2-11.7-1.6-16.7-4.3c-5-2.6-9.2-6-12.6-10.2c-3.4-4.2-6-9-7.7-14.4
		c-1.8-5.4-2.5-11.1-2.3-16.9c0.2-6.2,1.5-12.5,3.9-18.7c2.4-6.2,5.6-11.7,9.7-16.6c4.1-4.9,9-8.8,14.6-11.8
		c5.7-3,11.8-4.3,18.5-4.1c2.5,0.1,5.2,0.5,8.1,1.3c2.9,0.8,5.5,1.9,7.8,3.4c2.4,1.5,4.3,3.3,5.9,5.5c1.5,2.2,2.3,4.8,2.2,7.9
		c-0.1,2.1-0.7,4-1.8,5.7c-1.1,1.6-2.8,2.4-5.3,2.3c-1.4-0.1-2.5-0.5-3.4-1.2c-0.9-0.8-1.8-1.6-2.7-2.5c-0.9-0.9-2.1-1.7-3.3-2.5
		c-1.3-0.8-3.1-1.2-5.4-1.3c-4.3-0.2-8.2,0.7-11.7,2.6c-3.5,1.9-6.6,4.4-9.2,7.6c-2.6,3.1-4.6,6.6-6.1,10.5
		c-1.5,3.9-2.2,7.8-2.4,11.7c-0.1,3.4,0.2,6.8,1,10c0.8,3.2,2,6.1,3.8,8.6c1.8,2.5,4,4.6,6.8,6.1c2.8,1.6,6.1,2.4,10,2.5
		c3.2,0.1,6.5-0.3,10-1.2c3.5-0.9,6.9-1.9,10-3c3.1-1.1,5.8-2.1,8.1-3.1c2.3-0.9,3.8-1.4,4.5-1.4c1.8,0.1,3.3,0.7,4.5,1.9
		c1.2,1.2,1.8,2.7,1.7,4.6c-0.1,2-0.9,4-2.5,5.8c-1.6,1.9-3.7,3.5-6.1,5.1c-2.5,1.5-5.2,2.9-8.3,4.2c-3,1.2-6.1,2.3-9.1,3.2
		c-3,0.9-5.8,1.5-8.5,1.9C638.5,412.6,636.4,412.8,634.8,412.8z"/>
	<path class="st2" d="M706.9,351c1.3-1.2,2.7-2.4,4.2-3.8c1.5-1.4,3.1-2.7,4.8-3.9c1.6-1.2,3.3-2.2,4.9-2.9c1.7-0.7,3.3-1.1,4.9-1
		c2,0.1,3.6,0.8,4.8,2.1c1.3,1.4,1.8,3,1.8,4.8c-0.1,1.6-0.9,3.5-2.7,5.7c-1.7,2.2-3.7,4.5-6.1,6.7c-2.3,2.2-4.6,4.4-7,6.5
		c-2.3,2.1-4.1,3.8-5.4,5.1c1.1,0.5,2.7,1.1,4.8,1.8c2.1,0.7,4.1,1.5,6.1,2.5c2,1,3.8,2.1,5.3,3.3c1.5,1.2,2.2,2.5,2.2,3.9
		c-0.1,1.6-0.6,3-1.6,4.1c-1,1.2-2.5,1.7-4.3,1.7c-3.4-0.1-6.7-0.8-10.1-2.1c-3.4-1.3-6.6-2.6-9.9-3.8c-0.7-0.2-1.3-0.3-1.8-0.3
		c-0.5,0-0.7,0.5-0.8,1.5c-0.2,4-0.1,8,0.1,12.1c0.2,4.1,0.5,8.1,0.9,12c0.1,1,0.3,2.1,0.7,3.1c0.4,1,0.8,2.1,1.1,3
		c0.4,1,0.7,2,1.1,3c0.3,1,0.5,2,0.4,3c-0.1,1.6-0.8,2.9-2.1,4c-1.3,1.1-2.8,1.6-4.4,1.6c-2.5-0.1-4.6-1.4-6.4-4
		c-1.7-2.6-3.1-5.8-4.2-9.8c-1.1-4-1.9-8.3-2.4-13.1c-0.6-4.8-1-9.4-1.2-13.9c-0.2-4.5-0.3-8.5-0.3-12c0-3.5,0-6.1,0.1-7.7
		c0.1-1.9,0.3-4.5,0.6-8c0.3-3.5,0.8-7.3,1.5-11.4c0.7-4.1,1.5-8.4,2.6-12.7c1-4.3,2.3-8.3,3.8-11.7c1.5-3.5,3.2-6.3,5.2-8.5
		c2-2.2,4.3-3.2,6.9-3.1c1.7,0.1,3.2,0.7,4.5,1.9c1.4,1.2,2,2.8,1.9,4.6c0,0.8-0.2,1.6-0.4,2.4c-0.2,0.8-0.4,1.5-0.6,2.3
		c-1.7,4.4-3,9-3.9,13.6c-1,4.7-1.8,9.4-2.6,14.1c-0.1,0.8-0.2,1.6-0.3,2.4c-0.1,0.8-0.1,1.4,0.1,1.8c0.1,0.4,0.4,0.6,0.9,0.5
		C705.2,352.4,705.9,351.9,706.9,351z"/>
</g>
<g class="st8">
	<path class="st3" d="M467.4,314.5c-0.6,3.7-1.3,7.9-1.9,12.6c-0.7,4.7-1.3,9.6-2,14.9c-0.6,5.2-1.2,10.6-1.8,16
		c-0.6,5.4-1.1,10.7-1.6,15.9c-0.5,5.2-0.9,10.1-1.3,14.8c-0.3,4.7-0.5,8.9-0.7,12.6c-0.2,5.1,0.1,9,0.9,11.7
		c0.8,2.7,1.7,4.8,2.6,6.3c1,1.5,1.9,2.8,2.7,3.8c0.8,1,1.2,2.4,1.2,4.2c-0.1,2.3-1,4.3-2.8,6c-1.8,1.7-3.8,2.4-6.2,2.4
		c-3.8-0.1-7-1.7-9.6-4.7c-2.6-3-4.7-6.9-6.3-11.8c-1.6-4.9-2.8-10.5-3.6-16.8c-0.8-6.3-1.3-12.9-1.4-19.8
		c-0.2-6.9-0.1-13.7,0.2-20.5c0.3-6.8,0.7-13.2,1.3-19.2c0.5-5.9,1.2-11.2,1.8-15.7c0.7-4.5,1.3-7.9,1.8-10.1
		c-7,0.4-14,0.5-21.1,0.3c-7-0.2-14-0.4-21-0.6c-1.7-0.1-3.3-0.3-4.9-0.8c-1.6-0.5-3-1.2-4.2-2.2c-1.2-1-2.2-2.2-2.9-3.6
		c-0.7-1.4-1.1-3.1-1-4.9c0.1-2.2,0.6-4.1,1.5-5.6c0.9-1.5,2.5-2.7,4.8-3.7c0.9-0.4,3-0.9,6.2-1.5c3.2-0.6,7.2-1.2,11.9-2
		c4.7-0.8,10-1.5,15.9-2.3c5.9-0.8,11.9-1.5,18.1-2.3c6.2-0.7,12.3-1.4,18.3-2.1c6-0.7,11.7-1.2,16.9-1.7c5.2-0.5,9.8-0.8,13.7-1.1
		c3.9-0.3,6.7-0.4,8.6-0.3c2,0.1,3.8,0.3,5.6,0.7c1.8,0.4,3.3,1,4.6,1.9c1.3,0.9,2.4,2.1,3.1,3.6c0.8,1.5,1.1,3.4,1,5.8
		c-0.1,2.6-1.1,4.9-3,6.7c-1.9,1.9-4.3,3.5-7.3,4.8c-3,1.3-6.3,2.4-9.9,3.2c-3.6,0.8-7.2,1.6-10.8,2.2c-3.6,0.6-6.9,1.1-10.1,1.6
		C471.8,313.6,469.3,314,467.4,314.5z"/>
	<path class="st3" d="M498.4,334.3c1.9-0.8,3.8-1.5,5.6-2.2c1.8-0.7,3.8-1,6-0.9c1.1,0,2.3,0.2,3.7,0.6c1.3,0.3,2.6,0.8,3.7,1.5
		c1.1,0.7,2.1,1.6,2.8,2.6c0.8,1.1,1.1,2.3,1.1,3.7c-0.1,2.3-0.8,4-2.2,5.1c-1.4,1.1-3.2,1.6-5.4,1.5c-3-0.1-5.6,0.5-7.8,1.9
		c-2.2,1.4-4.2,3.2-5.7,5.5c-1.6,2.3-2.8,4.8-3.6,7.6c-0.8,2.8-1.3,5.5-1.4,8.1c-0.1,2.3,0,4.6,0.3,6.7c0.3,2.2,0.4,4.4,0.3,6.7
		c-0.1,2.1-0.8,4-2.2,5.4c-1.4,1.5-3.2,2.2-5.5,2.1c-2.5-0.1-4.4-1.6-5.8-4.4c-1.3-2.8-2.3-6.2-2.9-10c-0.6-3.8-0.9-7.5-1-11.2
		c-0.1-3.7,0-6.5,0-8.3c0.1-2,0.2-4.7,0.5-8.4s0.8-7.2,1.7-10.8c0.8-3.6,2.1-6.6,3.8-9.2c1.7-2.6,4-3.8,6.9-3.7c1.3,0,2.4,0.4,3.3,1
		c0.9,0.6,1.6,1.4,2.2,2.4c0.6,1,1,2,1.2,3.1C498.2,332,498.4,333.2,498.4,334.3z"/>
	<path class="st3" d="M566.8,331.4c1.1-1.2,2.2-2.3,3.4-3.3c1.2-1,2.6-1.5,4.3-1.4c2,0.1,3.6,0.9,4.7,2.3c1.1,1.5,1.6,3.3,1.5,5.3
		c-0.1,3.5-0.8,7.1-1.9,10.8c-1.1,3.6-1.7,7.4-1.9,11.3c-0.2,4.7,0.1,8,0.8,10c0.7,2,1.5,3.5,2.5,4.5c0.9,1,1.8,1.8,2.6,2.4
		c0.8,0.6,1.1,1.8,1.1,3.6c-0.1,2.4-0.9,4.2-2.4,5.4c-1.5,1.2-3.4,1.8-5.5,1.7c-2-0.1-3.6-0.4-5-1.1c-1.4-0.7-2.6-1.5-3.7-2.7
		c-1.1-1.1-2.1-2.4-3-3.7c-0.9-1.4-1.9-2.8-2.8-4.2c-0.8,1.8-1.8,3.8-3.1,5.9c-1.2,2.1-2.7,4-4.3,5.8c-1.6,1.8-3.4,3.2-5.4,4.3
		c-2,1.1-4.1,1.7-6.4,1.6c-3.2-0.1-5.8-1-7.9-2.7c-2.1-1.7-3.7-3.8-5-6.3c-1.3-2.5-2.1-5.2-2.6-8.2c-0.4-2.9-0.6-5.7-0.5-8.3
		c0.2-4.2,0.9-8.4,2.2-12.7c1.3-4.3,3.2-8.1,5.7-11.4c2.5-3.3,5.6-6,9.3-8.1c3.7-2,7.9-3,12.6-2.8c1.9,0.1,3.6,0.4,5.3,0.9
		C563.2,330.7,564.9,331.1,566.8,331.4z M559.3,346.9c-1.4-0.5-2.5-0.8-3.3-0.8c-2.4-0.1-4.5,0.6-6.1,2.1c-1.6,1.5-3,3.3-4,5.5
		c-1,2.2-1.8,4.5-2.3,7c-0.5,2.5-0.8,4.6-0.9,6.3c-0.1,2.8,0.1,4.8,0.5,6c0.4,1.2,1,1.8,1.8,1.7c0.7-0.1,1.6-0.8,2.6-2.1
		c1-1.3,2-2.9,3-4.9c1.8-3.3,3.3-6.7,4.5-10.2C556.3,354,557.7,350.5,559.3,346.9z"/>
	<path class="st3" d="M631.8,408.8c-6.1-0.2-11.7-1.6-16.7-4.3c-5-2.6-9.2-6-12.6-10.2c-3.4-4.2-6-9-7.7-14.4
		c-1.8-5.4-2.5-11.1-2.3-16.9c0.2-6.2,1.5-12.5,3.9-18.7c2.4-6.2,5.6-11.7,9.7-16.6c4.1-4.9,9-8.8,14.6-11.8
		c5.7-3,11.8-4.3,18.5-4.1c2.5,0.1,5.2,0.5,8.1,1.3c2.9,0.8,5.5,1.9,7.8,3.4c2.4,1.5,4.3,3.3,5.9,5.5c1.5,2.2,2.3,4.8,2.2,7.9
		c-0.1,2.1-0.7,4-1.8,5.7c-1.1,1.6-2.8,2.4-5.3,2.3c-1.4-0.1-2.5-0.5-3.4-1.2c-0.9-0.8-1.8-1.6-2.7-2.5c-0.9-0.9-2.1-1.7-3.3-2.5
		c-1.3-0.8-3.1-1.2-5.4-1.3c-4.3-0.2-8.2,0.7-11.7,2.6c-3.5,1.9-6.6,4.4-9.2,7.6c-2.6,3.1-4.6,6.6-6.1,10.5
		c-1.5,3.9-2.2,7.8-2.4,11.7c-0.1,3.4,0.2,6.8,1,10c0.8,3.2,2,6.1,3.8,8.6c1.8,2.5,4,4.6,6.8,6.1c2.8,1.6,6.1,2.4,10,2.5
		c3.2,0.1,6.5-0.3,10-1.2c3.5-0.9,6.9-1.9,10-3c3.1-1.1,5.8-2.1,8.1-3.1c2.3-0.9,3.8-1.4,4.5-1.4c1.8,0.1,3.3,0.7,4.5,1.9
		c1.2,1.2,1.8,2.7,1.7,4.6c-0.1,2-0.9,4-2.5,5.8c-1.6,1.9-3.7,3.5-6.1,5.1c-2.5,1.5-5.2,2.9-8.3,4.2c-3,1.2-6.1,2.3-9.1,3.2
		c-3,0.9-5.8,1.5-8.5,1.9C635.5,408.6,633.4,408.8,631.8,408.8z"/>
	<path class="st3" d="M703.9,347c1.3-1.2,2.7-2.4,4.2-3.8c1.5-1.4,3.1-2.7,4.8-3.9c1.6-1.2,3.3-2.2,4.9-2.9c1.7-0.7,3.3-1.1,4.9-1
		c2,0.1,3.6,0.8,4.8,2.1c1.3,1.4,1.8,3,1.8,4.8c-0.1,1.6-0.9,3.5-2.7,5.7c-1.7,2.2-3.7,4.5-6.1,6.7c-2.3,2.2-4.6,4.4-7,6.5
		c-2.3,2.1-4.1,3.8-5.4,5.1c1.1,0.5,2.7,1.1,4.8,1.8c2.1,0.7,4.1,1.5,6.1,2.5c2,1,3.8,2.1,5.3,3.3c1.5,1.2,2.2,2.5,2.2,3.9
		c-0.1,1.6-0.6,3-1.6,4.1c-1,1.2-2.5,1.7-4.3,1.7c-3.4-0.1-6.7-0.8-10.1-2.1c-3.4-1.3-6.6-2.6-9.9-3.8c-0.7-0.2-1.3-0.3-1.8-0.3
		c-0.5,0-0.7,0.5-0.8,1.5c-0.2,4-0.1,8,0.1,12.1c0.2,4.1,0.5,8.1,0.9,12c0.1,1,0.3,2.1,0.7,3.1c0.4,1,0.8,2.1,1.1,3
		c0.4,1,0.7,2,1.1,3c0.3,1,0.5,2,0.4,3c-0.1,1.6-0.8,2.9-2.1,4c-1.3,1.1-2.8,1.6-4.4,1.6c-2.5-0.1-4.6-1.4-6.4-4
		c-1.7-2.6-3.1-5.8-4.2-9.8c-1.1-4-1.9-8.3-2.4-13.1c-0.6-4.8-1-9.4-1.2-13.9c-0.2-4.5-0.3-8.5-0.3-12c0-3.5,0-6.1,0.1-7.7
		c0.1-1.9,0.3-4.5,0.6-8c0.3-3.5,0.8-7.3,1.5-11.4c0.7-4.1,1.5-8.4,2.6-12.7c1-4.3,2.3-8.3,3.8-11.7c1.5-3.5,3.2-6.3,5.2-8.5
		c2-2.2,4.3-3.2,6.9-3.1c1.7,0.1,3.2,0.7,4.5,1.9c1.4,1.2,2,2.8,1.9,4.6c0,0.8-0.2,1.6-0.4,2.4c-0.2,0.8-0.4,1.5-0.6,2.3
		c-1.7,4.4-3,9-3.9,13.6c-1,4.7-1.8,9.4-2.6,14.1c-0.1,0.8-0.2,1.6-0.3,2.4c-0.1,0.8-0.1,1.4,0.1,1.8c0.1,0.4,0.4,0.6,0.9,0.5
		C702.2,348.4,702.9,347.9,703.9,347z"/>
</g>
</svg>
